<?xml version="1.0" encoding="UTF-8" standalone="no"?><svg xmlns="http://www.w3.org/2000/svg" xmlns:xlink="http://www.w3.org/1999/xlink" contentStyleType="text/css" height="772px" preserveAspectRatio="none" style="width:803px;height:772px;background:#FFFFFF;" version="1.1" viewBox="0 0 803 772" width="803px" zoomAndPan="magnify"><defs/><g><rect fill="none" height="26.4883" id="_title" style="stroke:none;stroke-width:1.0;" width="196" x="296.75" y="5"/><text fill="#000000" font-family="sans-serif" font-size="14" font-weight="bold" lengthAdjust="spacing" textLength="186" x="301.75" y="23.5352">Building an infrastructure</text><!--MD5=[eae931e7931b24a2ba20ef73f0c8d8fa]
entity code--><g id="elem_code"><rect fill="#F1F1F1" height="38.9766" rx="2.5" ry="2.5" style="stroke:#181818;stroke-width:0.5;" width="103" x="520" y="511.4883"/><text fill="#000000" font-family="sans-serif" font-size="14" lengthAdjust="spacing" textLength="79" x="530" y="528.0234">All changes</text><text fill="#000000" font-family="sans-serif" font-size="14" lengthAdjust="spacing" textLength="59" x="542" y="544.5117">are code</text></g><!--MD5=[45522f7f27122b9fbba336fd835f121c]
entity adhoc--><g id="elem_adhoc"><rect fill="#F1F1F1" height="38.9766" rx="2.5" ry="2.5" style="stroke:#181818;stroke-width:0.5;" width="113" x="286" y="393.4883"/><text fill="#000000" font-family="sans-serif" font-size="14" lengthAdjust="spacing" textLength="93" x="296" y="410.0234">Avoid ad-hoc</text><text fill="#000000" font-family="sans-serif" font-size="14" lengthAdjust="spacing" textLength="57" x="314" y="426.5117">changes</text></g><!--MD5=[a862b3848b5e77c26d47edc69bf28af8]
entity autonomy--><g id="elem_autonomy"><rect fill="#F1F1F1" height="22.4883" rx="2.5" ry="2.5" style="stroke:#181818;stroke-width:0.5;" width="91" x="46" y="44.4883"/><text fill="#000000" font-family="sans-serif" font-size="14" lengthAdjust="spacing" textLength="71" x="56" y="61.0234">Autonomy</text></g><!--MD5=[3d99d59a27ec55cd9b0b1490801f78bc]
entity dev--><g id="elem_dev"><rect fill="#F1F1F1" height="38.9766" rx="2.5" ry="2.5" style="stroke:#181818;stroke-width:0.5;" width="193" x="475" y="276.4883"/><text fill="#000000" font-family="sans-serif" font-size="14" lengthAdjust="spacing" textLength="169" x="485" y="293.0234">Building Infrastructure is</text><text fill="#000000" font-family="sans-serif" font-size="14" lengthAdjust="spacing" textLength="158" x="492.5" y="309.5117">a Development Process</text></g><!--MD5=[9d0f9efd78a191df24a3b3d60bc8ee0a]
entity cattle--><g id="elem_cattle"><rect fill="#F1F1F1" height="22.4883" rx="2.5" ry="2.5" style="stroke:#181818;stroke-width:0.5;" width="124" x="180.5" y="519.9883"/><text fill="#000000" font-family="sans-serif" font-size="14" lengthAdjust="spacing" textLength="104" x="190.5" y="536.5234">Cattle, not pets</text></g><g id="elem_GMN313"><path d="M340,510.4883 L340,526.9883 L304.59,530.9883 L340,534.9883 L340,551.1094 A0,0 0 0 0 340,551.1094 L485,551.1094 A0,0 0 0 0 485,551.1094 L485,520.4883 L475,510.4883 L340,510.4883 A0,0 0 0 0 340,510.4883 " fill="#FEFFDD" style="stroke:#181818;stroke-width:0.5;"/><path d="M475,510.4883 L475,520.4883 L485,520.4883 L475,510.4883 " fill="#FEFFDD" style="stroke:#181818;stroke-width:0.5;"/><text fill="#000000" font-family="sans-serif" font-size="13" lengthAdjust="spacing" textLength="103" x="356.5" y="528.0566">Components are</text><text fill="#000000" font-family="sans-serif" font-size="13" lengthAdjust="spacing" textLength="124" x="346" y="543.3672">generic/replaceable</text></g><!--MD5=[1da538fb54ac19bd1e85f4467d40eadc]
entity cost--><g id="elem_cost"><rect fill="#F1F1F1" height="22.4883" rx="2.5" ry="2.5" style="stroke:#181818;stroke-width:0.5;" width="51" x="152" y="744.4883"/><text fill="#000000" font-family="sans-serif" font-size="14" lengthAdjust="spacing" textLength="31" x="162" y="761.0234">Cost</text></g><!--MD5=[cbcea3e90316498e06273b94daba3702]
entity dr--><g id="elem_dr"><rect fill="#F1F1F1" height="38.9766" rx="2.5" ry="2.5" style="stroke:#181818;stroke-width:0.5;" width="81" x="196" y="628.4883"/><text fill="#000000" font-family="sans-serif" font-size="14" lengthAdjust="spacing" textLength="55" x="209" y="645.0234">Disaster</text><text fill="#000000" font-family="sans-serif" font-size="14" lengthAdjust="spacing" textLength="61" x="206" y="661.5117">Recovery</text></g><!--MD5=[eb4c09fadde9b375b1abfedeb7e151d6]
entity artefacts--><g id="elem_artefacts"><rect fill="#F1F1F1" height="38.9766" rx="2.5" ry="2.5" style="stroke:#181818;stroke-width:0.5;" width="169" x="7" y="276.4883"/><text fill="#000000" font-family="sans-serif" font-size="14" font-style="italic" lengthAdjust="spacing" textLength="149" x="17" y="293.0234">«Artefacts repository»</text><text fill="#000000" font-family="sans-serif" font-size="14" lengthAdjust="spacing" textLength="78" x="52.5" y="309.5117">Gold server</text></g><!--MD5=[f31511b570e0f098b7e3c387a1ea0915]
entity golden--><g id="elem_golden"><rect fill="#F1F1F1" height="38.9766" rx="2.5" ry="2.5" style="stroke:#181818;stroke-width:0.5;" width="115" x="34" y="393.4883"/><text fill="#000000" font-family="sans-serif" font-size="14" font-style="italic" lengthAdjust="spacing" textLength="78" x="52.5" y="410.0234">«Template»</text><text fill="#000000" font-family="sans-serif" font-size="14" lengthAdjust="spacing" textLength="95" x="44" y="426.5117">Golden server</text></g><!--MD5=[b4cce3f4594af563e01c892ee53cb463]
entity labor--><g id="elem_labor"><rect fill="#F1F1F1" height="22.4883" rx="2.5" ry="2.5" style="stroke:#181818;stroke-width:0.5;" width="59" x="96" y="636.9883"/><text fill="#000000" font-family="sans-serif" font-size="14" lengthAdjust="spacing" textLength="39" x="106" y="653.5234">Labor</text></g><!--MD5=[a6352068383086570c27132526ed9177]
entity pull--><g id="elem_pull"><rect fill="#F1F1F1" height="38.9766" rx="2.5" ry="2.5" style="stroke:#181818;stroke-width:0.5;" width="105" x="39" y="151.9883"/><text fill="#000000" font-family="sans-serif" font-size="14" lengthAdjust="spacing" textLength="85" x="49" y="168.5234">Pull is better</text><text fill="#000000" font-family="sans-serif" font-size="14" lengthAdjust="spacing" textLength="68" x="57.5" y="185.0117">than Push</text></g><g id="elem_GMN322"><path d="M179.5,143.4883 L179.5,167.4883 L144.31,171.4883 L179.5,175.4883 L179.5,199.4199 A0,0 0 0 0 179.5,199.4199 L323.5,199.4199 A0,0 0 0 0 323.5,199.4199 L323.5,153.4883 L313.5,143.4883 L179.5,143.4883 A0,0 0 0 0 179.5,143.4883 " fill="#FEFFDD" style="stroke:#181818;stroke-width:0.5;"/><path d="M313.5,143.4883 L313.5,153.4883 L323.5,153.4883 L313.5,143.4883 " fill="#FEFFDD" style="stroke:#181818;stroke-width:0.5;"/><text fill="#000000" font-family="sans-serif" font-size="13" lengthAdjust="spacing" textLength="123" x="185.5" y="161.0566">Servers are passive.</text><text fill="#000000" font-family="sans-serif" font-size="13" lengthAdjust="spacing" textLength="92" x="199" y="176.3672">Clients initiate</text><text fill="#000000" font-family="sans-serif" font-size="13" lengthAdjust="spacing" textLength="75" x="209.5" y="191.6777">interactions</text></g><!--MD5=[d11cc8f54812d1777c3084fc0ac1be6e]
entity repeat--><g id="elem_repeat"><rect fill="#F1F1F1" height="22.4883" rx="2.5" ry="2.5" style="stroke:#181818;stroke-width:0.5;" width="108" x="37.5" y="519.9883"/><text fill="#000000" font-family="sans-serif" font-size="14" lengthAdjust="spacing" textLength="88" x="47.5" y="536.5234">Repeatability</text></g><!--MD5=[6fa47a722a72b965bd621f330203bf5c]
entity vc--><g id="elem_vc"><rect fill="#F1F1F1" height="38.9766" rx="2.5" ry="2.5" style="stroke:#181818;stroke-width:0.5;" width="76" x="533.5" y="393.4883"/><text fill="#000000" font-family="sans-serif" font-size="14" lengthAdjust="spacing" textLength="52" x="543.5" y="410.0234">Version</text><text fill="#000000" font-family="sans-serif" font-size="14" lengthAdjust="spacing" textLength="52" x="545.5" y="426.5117">Control</text></g><g id="elem_GMN327"><path d="M644.5,392.4883 L644.5,408.9883 L609.62,412.9883 L644.5,416.9883 L644.5,433.1094 A0,0 0 0 0 644.5,433.1094 L796.5,433.1094 A0,0 0 0 0 796.5,433.1094 L796.5,402.4883 L786.5,392.4883 L644.5,392.4883 A0,0 0 0 0 644.5,392.4883 " fill="#FEFFDD" style="stroke:#181818;stroke-width:0.5;"/><path d="M786.5,392.4883 L786.5,402.4883 L796.5,402.4883 L786.5,392.4883 " fill="#FEFFDD" style="stroke:#181818;stroke-width:0.5;"/><text fill="#000000" font-family="sans-serif" font-size="13" lengthAdjust="spacing" textLength="128" x="652" y="410.0566">Traces the evolution</text><text fill="#000000" font-family="sans-serif" font-size="13" lengthAdjust="spacing" textLength="127" x="654.5" y="425.3672">of the infrastructure</text></g><!--MD5=[2c909464248183eecab7e478955975fd]
link artefacts to golden--><g id="link_artefacts_golden"><path d="M91.5,315.7183 C91.5,335.4383 91.5,366.5283 91.5,388.0183 " fill="none" id="artefacts-to-golden" style="stroke:#181818;stroke-width:1.0;"/><polygon fill="#181818" points="91.5,393.2683,95.5,384.2683,91.5,388.2683,87.5,384.2683,91.5,393.2683" style="stroke:#181818;stroke-width:1.0;"/><text fill="#000000" font-family="sans-serif" font-size="13" lengthAdjust="spacing" textLength="40" x="92.5" y="359.0566">serves</text></g><!--MD5=[6f36353385a64a3ad36f3d1b66f518c6]
link adhoc to cattle--><g id="link_adhoc_cattle"><path d="M326.43,432.6283 C306.45,455.7983 272.79,494.8583 254.76,515.7583 " fill="none" id="adhoc-to-cattle" style="stroke:#181818;stroke-width:1.0;"/><polygon fill="#181818" points="251.38,519.6883,260.2833,515.4774,254.6422,515.899,254.2205,510.2579,251.38,519.6883" style="stroke:#181818;stroke-width:1.0;"/><text fill="#000000" font-family="sans-serif" font-size="13" lengthAdjust="spacing" textLength="58" x="299.5" y="477.0566">produces</text></g><!--MD5=[1b8f77834c2f305474c23a040d3760a1]
link adhoc to code--><g id="link_adhoc_code"><path d="M379.04,432.4983 C420.22,453.3583 487.02,487.1983 530.1,509.0183 " fill="none" id="adhoc-to-code" style="stroke:#181818;stroke-width:1.0;"/><polygon fill="#181818" points="534.71,511.3583,528.4781,503.7317,530.2465,509.1051,524.8731,510.8734,534.71,511.3583" style="stroke:#181818;stroke-width:1.0;"/><text fill="#000000" font-family="sans-serif" font-size="13" lengthAdjust="spacing" textLength="41" x="472.5" y="477.0566">means</text></g><!--MD5=[59c74602627e586fc501fb3f6c7229cf]
link cattle to dr--><g id="link_cattle_dr"><path d="M241.97,542.1983 C241.03,560.2583 239.04,598.3083 237.74,623.2383 " fill="none" id="cattle-to-dr" style="stroke:#181818;stroke-width:1.0;"/><polygon fill="#181818" points="237.47,628.3483,241.9283,619.5663,237.7275,623.3549,233.9389,619.1542,237.47,628.3483" style="stroke:#181818;stroke-width:1.0;"/><text fill="#000000" font-family="sans-serif" font-size="13" lengthAdjust="spacing" textLength="58" x="241.5" y="595.0566">improves</text></g><!--MD5=[ed122289688244426fe3b7b70ac86081]
link dr to cost--><g id="link_dr_cost"><path d="M225.95,667.8483 C214.4,688.4983 196.13,721.1783 185.64,739.9383 " fill="none" id="dr-to-cost" style="stroke:#181818;stroke-width:1.0;"/><polygon fill="#181818" points="183.14,744.3983,191.0304,738.5041,185.5852,740.037,184.0523,734.5918,183.14,744.3983" style="stroke:#181818;stroke-width:1.0;"/><text fill="#000000" font-family="sans-serif" font-size="13" lengthAdjust="spacing" textLength="49" x="210.5" y="711.0566">reduces</text></g><!--MD5=[780cffaa7ceeb88d8814496362b86c33]
link dev to vc--><g id="link_dev_vc"><path d="M571.5,315.7183 C571.5,335.4383 571.5,366.5283 571.5,388.0183 " fill="none" id="dev-to-vc" style="stroke:#181818;stroke-width:1.0;"/><polygon fill="#181818" points="571.5,393.2683,575.5,384.2683,571.5,388.2683,567.5,384.2683,571.5,393.2683" style="stroke:#181818;stroke-width:1.0;"/><text fill="#000000" font-family="sans-serif" font-size="13" lengthAdjust="spacing" textLength="51" x="572.5" y="359.0566">requires</text></g><!--MD5=[20a0531e8407c6e83d01e2a9620b6cb7]
link golden to repeat--><g id="link_golden_repeat"><path d="M91.5,432.6283 C91.5,455.3183 91.5,493.2383 91.5,514.4283 " fill="none" id="golden-to-repeat" style="stroke:#181818;stroke-width:1.0;"/><polygon fill="#181818" points="91.5,519.6883,95.5,510.6883,91.5,514.6883,87.5,510.6883,91.5,519.6883" style="stroke:#181818;stroke-width:1.0;"/><text fill="#000000" font-family="sans-serif" font-size="13" lengthAdjust="spacing" textLength="48" x="92.5" y="477.0566">enables</text></g><!--MD5=[df012a68c12bce34a705c3f6b5167c53]
link labor to cost--><g id="link_labor_cost"><path d="M124.39,659.3983 C123.43,672.8983 123.39,696.7983 132.5,714.4883 C138.01,725.1883 147.67,734.3583 156.63,741.2083 " fill="none" id="labor-to-cost" style="stroke:#181818;stroke-width:1.0;"/><polygon fill="#181818" points="160.95,744.3783,156.0618,735.8281,156.9193,741.4196,151.3279,742.2772,160.95,744.3783" style="stroke:#181818;stroke-width:1.0;"/><text fill="#000000" font-family="sans-serif" font-size="13" lengthAdjust="spacing" textLength="49" x="133.5" y="711.0566">reduces</text></g><!--MD5=[9b1949207fc2221ee9454e32246f39c8]
link autonomy to pull--><g id="link_autonomy_pull"><path d="M91.5,66.6083 C91.5,84.4083 91.5,121.7983 91.5,146.5283 " fill="none" id="autonomy-to-pull" style="stroke:#181818;stroke-width:1.0;"/><polygon fill="#181818" points="91.5,151.5983,95.5,142.5983,91.5,146.5983,87.5,142.5983,91.5,151.5983" style="stroke:#181818;stroke-width:1.0;"/><text fill="#000000" font-family="sans-serif" font-size="13" lengthAdjust="spacing" textLength="41" x="92.5" y="110.0566">means</text></g><!--MD5=[0b5a20d7bdff780ffe0570e03edab7c7]
link pull to artefacts--><g id="link_pull_artefacts"><path d="M91.5,191.0983 C91.5,212.4983 91.5,247.6983 91.5,271.1083 " fill="none" id="pull-to-artefacts" style="stroke:#181818;stroke-width:1.0;"/><polygon fill="#181818" points="91.5,276.2083,95.5,267.2083,91.5,271.2083,87.5,267.2083,91.5,276.2083" style="stroke:#181818;stroke-width:1.0;"/><text fill="#000000" font-family="sans-serif" font-size="13" lengthAdjust="spacing" textLength="51" x="92.5" y="243.0566">requires</text></g><!--MD5=[b74234f9457403fc8224168c9603483d]
link repeat to labor--><g id="link_repeat_labor"><path d="M94.52,542.1983 C100.53,562.5383 114.03,608.2083 121.06,631.9783 " fill="none" id="repeat-to-labor" style="stroke:#181818;stroke-width:1.0;"/><polygon fill="#181818" points="122.54,636.9683,123.8332,627.2047,121.1269,632.1721,116.1594,629.4657,122.54,636.9683" style="stroke:#181818;stroke-width:1.0;"/><text fill="#000000" font-family="sans-serif" font-size="13" lengthAdjust="spacing" textLength="49" x="112.5" y="595.0566">reduces</text></g><!--MD5=[7c1db199de08a45841ca5428dd8ffa82]
link vc to code--><g id="link_vc_code"><path d="M571.5,432.6283 C571.5,452.6683 571.5,484.5783 571.5,506.3683 " fill="none" id="vc-to-code" style="stroke:#181818;stroke-width:1.0;"/><polygon fill="#181818" points="571.5,511.3983,575.5,502.3983,571.5,506.3983,567.5,502.3983,571.5,511.3983" style="stroke:#181818;stroke-width:1.0;"/><text fill="#000000" font-family="sans-serif" font-size="13" lengthAdjust="spacing" textLength="37" x="572.5" y="477.0566">needs</text></g><!--MD5=[4f600b92884690e49ed2098165eb3f08]
@startuml

title Building an infrastructure

'left to right direction
skinparam defaultTextAlignment center

card "All changes \nare code" as code
card "Avoid ad-hoc\nchanges" as adhoc
card "Autonomy" as autonomy
card "Building Infrastructure is \na Development Process" as dev
card "Cattle, not pets" as cattle
note right: Components are\ngeneric/replaceable
card "Cost" as cost
card "Disaster\nRecovery" as dr
card "Gold server" <<Artefacts repository>> as artefacts
card "Golden server" <<Template>> as golden
card "Labor" as labor
card "Pull is better\nthan Push" as pull
note right: Servers are passive.\nClients initiate \ninteractions
card "Repeatability" as repeat
card "Version \nControl" as vc
note right: Traces the evolution\n of the infrastructure


artefacts - -> golden: serves
adhoc - -> cattle: produces
adhoc - -> code: means
cattle - -> dr: improves
dr - -> cost: reduces
dev - -> vc: requires
golden - -> repeat: enables
labor - -> cost: reduces
autonomy - -> pull: means
pull - -> artefacts: requires
repeat - -> labor: reduces
vc - -> code: needs

@enduml

@startuml

title Building an infrastructure

skinparam defaultTextAlignment center

card "All changes \nare code" as code
card "Avoid ad-hoc\nchanges" as adhoc
card "Autonomy" as autonomy
card "Building Infrastructure is \na Development Process" as dev
card "Cattle, not pets" as cattle
note right: Components are\ngeneric/replaceable
card "Cost" as cost
card "Disaster\nRecovery" as dr
card "Gold server" <<Artefacts repository>> as artefacts
card "Golden server" <<Template>> as golden
card "Labor" as labor
card "Pull is better\nthan Push" as pull
note right: Servers are passive.\nClients initiate \ninteractions
card "Repeatability" as repeat
card "Version \nControl" as vc
note right: Traces the evolution\n of the infrastructure


artefacts - -> golden: serves
adhoc - -> cattle: produces
adhoc - -> code: means
cattle - -> dr: improves
dr - -> cost: reduces
dev - -> vc: requires
golden - -> repeat: enables
labor - -> cost: reduces
autonomy - -> pull: means
pull - -> artefacts: requires
repeat - -> labor: reduces
vc - -> code: needs

@enduml

PlantUML version 1.2022.7(Mon Aug 22 19:01:30 CEST 2022)
(GPL source distribution)
Java Runtime: OpenJDK Runtime Environment
JVM: OpenJDK 64-Bit Server VM
Default Encoding: UTF-8
Language: de
Country: DE
--></g></svg>