<?xml version="1.0" encoding="utf-8"?>
<!-- Svg Vector Icons : http://www.onlinewebfonts.com/icon -->
<!DOCTYPE svg PUBLIC "-//W3C//DTD SVG 1.1//EN" "http://www.w3.org/Graphics/SVG/1.1/DTD/svg11.dtd">
<svg version="1.1" xmlns="http://www.w3.org/2000/svg" xmlns:xlink="http://www.w3.org/1999/xlink" x="0px" y="0px" viewBox="0 0 256 256" enable-background="new 0 0 256 256" xml:space="preserve">
<metadata> Svg Vector Icons : http://www.onlinewebfonts.com/icon </metadata>
<g><g><g><path fill="#000000" d="M67.1,10.3c-1.3,0.2-4.1,1.3-6.2,2.3c-12.7,6.1-20,22.8-21.6,49.2c-0.5,8.5-0.4,11.1,1,21.7c2,14.5,3.6,22.1,8.3,39.9c2.2,7.9,2.9,9.1,6.1,9.1c2.1,0,40.2-7.7,42.2-8.5c2.2-0.9,2.6-1.9,2.8-9.5c0.3-8.5,1.2-12,5.5-21.4c5.7-12.2,6.4-16,5.6-28.1c-1.1-16.1-3.5-27.6-7.3-35.7C97.3,16.3,88.7,10.5,75,10C72,9.9,68.4,10,67.1,10.3z M78.9,20.3c4.6,1.1,7.2,2.5,10.4,5.8c3.5,3.5,5.8,7.6,7.7,13.5c2.2,7.1,4,20.8,4.2,31.6c0.1,6.3-0.4,8.2-4.8,17.8c-4.5,10-6.5,17.3-6.5,24.1v2.7l-2.2,0.5c-18.1,3.7-28.7,5.8-28.9,5.6c-0.6-0.6-4-13.9-5.6-21.6c-0.9-4.4-2.2-12-2.9-16.8c-1.1-8.1-1.2-9.8-1-19.2c0.1-7.5,0.5-11.8,1.2-15.8c1.2-6.5,3.6-14,5.7-17.9c1.7-3,5.9-7.6,8.2-8.7C68.4,19.7,73.9,19.1,78.9,20.3z"/><path fill="#000000" d="M176.6,64.1c-7.8,1.1-14.8,5.2-19.4,11.4c-6.8,8.9-10.5,22.8-11.9,44.2c-0.8,12.4-0.3,15.1,6.1,28.9c3.9,8.5,4.7,11.8,5,20.2c0.2,7,0.6,8.3,2.5,9.3c0.5,0.3,10.3,2.4,21.8,4.7c22.3,4.5,22.3,4.5,24.3,2.3c0.9-1,5.7-18.6,7.7-28.4c1.7-8.1,3.7-21.6,4.2-28.2c1-12.8-1.4-31.4-5.2-41.6c-3.6-9.7-9.6-17.2-16.4-20.5C190.4,64,183.2,63.1,176.6,64.1z M186,73.8c13.1,2.2,20.3,17.4,20.9,44.4c0.2,9.1,0.1,10.9-1,18.9c-0.7,4.9-2,12.4-2.8,16.8c-1.6,7.9-5,21.1-5.6,21.6c-0.2,0.3-28.9-5.2-30.5-5.8c-0.4-0.1-0.6-1.1-0.6-2.7c0-3.6-1.2-10.3-2.6-14.5c-0.7-2.1-2.6-6.6-4.2-10.2c-4.3-9.2-4.7-10.7-4.6-17.2c0.1-10.9,1.9-24.6,4.2-31.8c4.1-13.1,11-19.1,23.1-20C182.6,73.4,184.3,73.6,186,73.8z"/><path fill="#000000" d="M77.4,140.2c-19.6,4-20.1,4.1-21.4,5.6c-1.6,1.7-1.6,2.8-0.4,8.3c5.2,22.4,12.2,33.8,22.9,37.1c3.5,1.1,9.8,1.2,14.5,0.2c12.5-2.7,17.3-10.2,15.8-24.6c-0.6-5.7-2.6-16-4.6-23.7c-1.1-4.4-1.4-5-2.9-5.9c-0.9-0.6-2.1-1-2.8-1C98,136.1,88.5,137.9,77.4,140.2z M96.7,153.5c3.2,13.7,3.6,19.5,1.8,23.1c-1.8,3.6-4.9,5-11.6,5.5c-10.5,0.7-15-4.7-20.1-23.9c-0.7-2.9-1.2-5.2-1.1-5.3c0.4-0.4,29-6,29.3-5.7C95.2,147.3,96,150.2,96.7,153.5z"/><path fill="#000000" d="M155.3,190.3c-0.8,0.4-1.8,1.3-2.1,2c-0.9,1.8-4.3,16-5.5,23.1c-1.3,7.3-1.1,14.7,0.5,18.6c2.5,6.5,8.6,10.4,18.4,11.6c10.4,1.3,18.3-2.5,24.2-11.5c2.9-4.4,5.2-10,7.7-18.6c3.5-12.4,3.7-14.8,1.1-16.7c-0.7-0.6-7.7-2.2-20.7-4.9C155.2,189.2,157.1,189.6,155.3,190.3z M176.2,203.7c7.5,1.5,13.7,2.8,13.9,2.8c1.1,0-2.9,14.2-5.5,19.4c-2.3,4.8-4.5,7.3-7.7,8.9c-2.4,1.1-2.9,1.2-7.3,1c-7.5-0.3-11.3-2.4-12.6-7.1c-0.7-2.4-0.3-9.5,0.7-14.1c2.6-12,3.1-13.8,4-13.8C162.2,200.9,168.7,202.2,176.2,203.7z"/></g></g></g>
</svg>