<?xml version="1.0" encoding="UTF-8" standalone="no"?><svg xmlns="http://www.w3.org/2000/svg" xmlns:xlink="http://www.w3.org/1999/xlink" contentStyleType="text/css" height="1123px" preserveAspectRatio="none" style="width:1726px;height:1123px;background:#FFFFFF;" version="1.1" viewBox="0 0 1726 1123" width="1726px" zoomAndPan="magnify"><defs/><g><rect fill="#F1F1F1" height="36.4883" rx="12.5" ry="12.5" style="stroke:#181818;stroke-width:1.5;" width="197" x="842" y="542.5166"/><text fill="#000000" font-family="sans-serif" font-size="14" lengthAdjust="spacing" textLength="177" x="852" y="566.0518">How to write mathematics</text><rect fill="#F1F1F1" height="36.4883" rx="12.5" ry="12.5" style="stroke:#181818;stroke-width:1.5;" width="191" x="1089" y="207.0986"/><text fill="#000000" font-family="sans-serif" font-size="14" lengthAdjust="spacing" textLength="171" x="1099" y="230.6338">1. Have something to say</text><rect fill="#F1F1F1" height="36.4883" rx="12.5" ry="12.5" style="stroke:#181818;stroke-width:1.5;" width="158" x="1330" y="150.6104"/><text fill="#000000" font-family="sans-serif" font-size="14" lengthAdjust="spacing" textLength="138" x="1340" y="174.1455">Be clear and concise</text><path d="M1280,225.3428 L1290,225.3428 C1305,225.3428 1305,168.8545 1320,168.8545 L1330,168.8545 " fill="none" style="stroke:#181818;stroke-width:1.0;"/><rect fill="#F1F1F1" height="36.4883" rx="12.5" ry="12.5" style="stroke:#181818;stroke-width:1.5;" width="129" x="1330" y="235.3428"/><text fill="#000000" font-family="sans-serif" font-size="14" lengthAdjust="spacing" textLength="109" x="1340" y="258.8779">Common errors</text><rect fill="#F1F1F1" height="36.4883" rx="12.5" ry="12.5" style="stroke:#181818;stroke-width:1.5;" width="128" x="1509" y="207.0986"/><text fill="#000000" font-family="sans-serif" font-size="14" lengthAdjust="spacing" textLength="108" x="1519" y="230.6338">Too many ideas</text><path d="M1459,253.5869 L1469,253.5869 C1484,253.5869 1484,225.3428 1499,225.3428 L1509,225.3428 " fill="none" style="stroke:#181818;stroke-width:1.0;"/><rect fill="#F1F1F1" height="36.4883" rx="12.5" ry="12.5" style="stroke:#181818;stroke-width:1.5;" width="205" x="1509" y="263.5869"/><text fill="#000000" font-family="sans-serif" font-size="14" lengthAdjust="spacing" textLength="185" x="1519" y="287.1221">Writing a lot about nothing</text><path d="M1459,253.5869 L1469,253.5869 C1484,253.5869 1484,281.8311 1499,281.8311 L1509,281.8311 " fill="none" style="stroke:#181818;stroke-width:1.0;"/><path d="M1280,225.3428 L1290,225.3428 C1305,225.3428 1305,253.5869 1320,253.5869 L1330,253.5869 " fill="none" style="stroke:#181818;stroke-width:1.0;"/><path d="M1039,560.7607 L1049,560.7607 C1064,560.7607 1064,225.3428 1079,225.3428 L1089,225.3428 " fill="none" style="stroke:#181818;stroke-width:1.0;"/><rect fill="#F1F1F1" height="36.4883" rx="12.5" ry="12.5" style="stroke:#181818;stroke-width:1.5;" width="212" x="1089" y="376.5635"/><text fill="#000000" font-family="sans-serif" font-size="14" lengthAdjust="spacing" textLength="192" x="1099" y="400.0986">2. Have someone to say it to</text><rect fill="#F1F1F1" height="36.4883" rx="12.5" ry="12.5" style="stroke:#181818;stroke-width:1.5;" width="159" x="1351" y="320.0752"/><text fill="#000000" font-family="sans-serif" font-size="14" lengthAdjust="spacing" textLength="139" x="1361" y="343.6104">Know your audience</text><path d="M1301,394.8076 L1311,394.8076 C1326,394.8076 1326,338.3193 1341,338.3193 L1351,338.3193 " fill="none" style="stroke:#181818;stroke-width:1.0;"/><rect fill="#F1F1F1" height="36.4883" rx="12.5" ry="12.5" style="stroke:#181818;stroke-width:1.5;" width="180" x="1351" y="376.5635"/><text fill="#000000" font-family="sans-serif" font-size="14" lengthAdjust="spacing" textLength="160" x="1361" y="400.0986">Write for your audience</text><path d="M1301,394.8076 L1311,394.8076 C1326,394.8076 1326,394.8076 1341,394.8076 L1351,394.8076 " fill="none" style="stroke:#181818;stroke-width:1.0;"/><rect fill="#F1F1F1" height="36.4883" rx="12.5" ry="12.5" style="stroke:#181818;stroke-width:1.5;" width="141" x="1351" y="433.0518"/><text fill="#000000" font-family="sans-serif" font-size="14" lengthAdjust="spacing" textLength="121" x="1361" y="456.5869">Write for the ages</text><path d="M1301,394.8076 L1311,394.8076 C1326,394.8076 1326,451.2959 1341,451.2959 L1351,451.2959 " fill="none" style="stroke:#181818;stroke-width:1.0;"/><path d="M1039,560.7607 L1049,560.7607 C1064,560.7607 1064,394.8076 1079,394.8076 L1089,394.8076 " fill="none" style="stroke:#181818;stroke-width:1.0;"/><rect fill="#F1F1F1" height="36.4883" rx="12.5" ry="12.5" style="stroke:#181818;stroke-width:1.5;" width="100" x="1089" y="711.9814"/><text fill="#000000" font-family="sans-serif" font-size="14" lengthAdjust="spacing" textLength="80" x="1099" y="735.5166">3. Organize</text><rect fill="#F1F1F1" height="36.4883" rx="12.5" ry="12.5" style="stroke:#181818;stroke-width:1.5;" width="155" x="1239" y="489.54"/><text fill="#000000" font-family="sans-serif" font-size="14" lengthAdjust="spacing" textLength="135" x="1249" y="513.0752">Minimize resistance</text><path d="M1189,730.2256 L1199,730.2256 C1214,730.2256 1214,507.7842 1229,507.7842 L1239,507.7842 " fill="none" style="stroke:#181818;stroke-width:1.0;"/><rect fill="#F1F1F1" height="36.4883" rx="12.5" ry="12.5" style="stroke:#181818;stroke-width:1.5;" width="243" x="1239" y="546.0283"/><text fill="#000000" font-family="sans-serif" font-size="14" lengthAdjust="spacing" textLength="223" x="1249" y="569.5635">Use straightforward connections</text><path d="M1189,730.2256 L1199,730.2256 C1214,730.2256 1214,564.2725 1229,564.2725 L1239,564.2725 " fill="none" style="stroke:#181818;stroke-width:1.0;"/><rect fill="#F1F1F1" height="36.4883" rx="12.5" ry="12.5" style="stroke:#181818;stroke-width:1.5;" width="286" x="1239" y="602.5166"/><text fill="#000000" font-family="sans-serif" font-size="14" lengthAdjust="spacing" textLength="266" x="1249" y="626.0518">Minimize pre-requisites/dependencies</text><path d="M1189,730.2256 L1199,730.2256 C1214,730.2256 1214,620.7607 1229,620.7607 L1239,620.7607 " fill="none" style="stroke:#181818;stroke-width:1.0;"/><rect fill="#F1F1F1" height="36.4883" rx="12.5" ry="12.5" style="stroke:#181818;stroke-width:1.5;" width="70" x="1239" y="760.2256"/><text fill="#000000" font-family="sans-serif" font-size="14" lengthAdjust="spacing" textLength="50" x="1249" y="783.7607">Outline</text><rect fill="#F1F1F1" height="36.4883" rx="12.5" ry="12.5" style="stroke:#181818;stroke-width:1.5;" width="316" x="1359" y="659.0049"/><text fill="#000000" font-family="sans-serif" font-size="14" lengthAdjust="spacing" textLength="296" x="1369" y="682.54">Be logical (chronological, interconnections)</text><path d="M1309,778.4697 L1319,778.4697 C1334,778.4697 1334,677.249 1349,677.249 L1359,677.249 " fill="none" style="stroke:#181818;stroke-width:1.0;"/><rect fill="#F1F1F1" height="36.4883" rx="12.5" ry="12.5" style="stroke:#181818;stroke-width:1.5;" width="271" x="1359" y="715.4932"/><text fill="#000000" font-family="sans-serif" font-size="14" lengthAdjust="spacing" textLength="251" x="1369" y="739.0283">Psychologically digestible exposition</text><path d="M1309,778.4697 L1319,778.4697 C1334,778.4697 1334,733.7373 1349,733.7373 L1359,733.7373 " fill="none" style="stroke:#181818;stroke-width:1.0;"/><rect fill="#F1F1F1" height="69.4648" rx="12.5" ry="12.5" style="stroke:#181818;stroke-width:1.5;" width="214" x="1359" y="771.9814"/><text fill="#000000" font-family="sans-serif" font-size="14" lengthAdjust="spacing" textLength="194" x="1369" y="795.5166">Say what you're going to say</text><text fill="#000000" font-family="sans-serif" font-size="14" lengthAdjust="spacing" textLength="35" x="1369" y="812.0049">say it</text><text fill="#000000" font-family="sans-serif" font-size="14" lengthAdjust="spacing" textLength="120" x="1369" y="828.4932">say what you said</text><path d="M1309,778.4697 L1319,778.4697 C1334,778.4697 1334,806.7139 1349,806.7139 L1359,806.7139 " fill="none" style="stroke:#181818;stroke-width:1.0;"/><rect fill="#F1F1F1" height="36.4883" rx="12.5" ry="12.5" style="stroke:#181818;stroke-width:1.5;" width="72" x="1359" y="861.4463"/><text fill="#000000" font-family="sans-serif" font-size="14" lengthAdjust="spacing" textLength="52" x="1369" y="884.9814">Be brief</text><path d="M1309,778.4697 L1319,778.4697 C1334,778.4697 1334,879.6904 1349,879.6904 L1359,879.6904 " fill="none" style="stroke:#181818;stroke-width:1.0;"/><path d="M1189,730.2256 L1199,730.2256 C1214,730.2256 1214,778.4697 1229,778.4697 L1239,778.4697 " fill="none" style="stroke:#181818;stroke-width:1.0;"/><rect fill="#F1F1F1" height="52.9766" rx="12.5" ry="12.5" style="stroke:#181818;stroke-width:1.5;" width="238" x="1239" y="917.9346"/><text fill="#000000" font-family="sans-serif" font-size="14" lengthAdjust="spacing" textLength="186" x="1249" y="941.4697">Focus attention on insights</text><text fill="#000000" font-family="sans-serif" font-size="14" lengthAdjust="spacing" textLength="218" x="1249" y="957.958">from particular to general cases</text><path d="M1189,730.2256 L1199,730.2256 C1214,730.2256 1214,944.4229 1229,944.4229 L1239,944.4229 " fill="none" style="stroke:#181818;stroke-width:1.0;"/><path d="M1039,560.7607 L1049,560.7607 C1064,560.7607 1064,730.2256 1079,730.2256 L1089,730.2256 " fill="none" style="stroke:#181818;stroke-width:1.0;"/><rect fill="#F1F1F1" height="36.4883" rx="12.5" ry="12.5" style="stroke:#181818;stroke-width:1.5;" width="93" x="699" y="175.3428"/><text fill="#000000" font-family="sans-serif" font-size="14" lengthAdjust="spacing" textLength="73" x="709" y="198.8779">4. Arrange</text><rect fill="#F1F1F1" height="36.4883" rx="12.5" ry="12.5" style="stroke:#181818;stroke-width:1.5;" width="147" x="502" y="20"/><text fill="#000000" font-family="sans-serif" font-size="14" lengthAdjust="spacing" textLength="127" x="512" y="43.5352">Use the spiral plan</text><path d="M699,193.5869 L689,193.5869 C674,193.5869 674,38.2441 659,38.2441 L649,38.2441 " fill="none" style="stroke:#181818;stroke-width:1.0;"/><rect fill="#F1F1F1" height="36.4883" rx="12.5" ry="12.5" style="stroke:#181818;stroke-width:1.5;" width="83" x="566" y="175.3428"/><text fill="#000000" font-family="sans-serif" font-size="14" lengthAdjust="spacing" textLength="63" x="576" y="198.8779">Organize</text><rect fill="#F1F1F1" height="36.4883" rx="12.5" ry="12.5" style="stroke:#181818;stroke-width:1.5;" width="86" x="430" y="76.4883"/><text fill="#000000" font-family="sans-serif" font-size="14" lengthAdjust="spacing" textLength="66" x="440" y="100.0234">Introduce</text><path d="M566,193.5869 L556,193.5869 C541,193.5869 541,94.7324 526,94.7324 L516,94.7324 " fill="none" style="stroke:#181818;stroke-width:1.0;"/><rect fill="#F1F1F1" height="36.4883" rx="12.5" ry="12.5" style="stroke:#181818;stroke-width:1.5;" width="78" x="438" y="132.9766"/><text fill="#000000" font-family="sans-serif" font-size="14" lengthAdjust="spacing" textLength="58" x="448" y="156.5117">Motivate</text><path d="M566,193.5869 L556,193.5869 C541,193.5869 541,151.2207 526,151.2207 L516,151.2207 " fill="none" style="stroke:#181818;stroke-width:1.0;"/><rect fill="#F1F1F1" height="36.4883" rx="12.5" ry="12.5" style="stroke:#181818;stroke-width:1.5;" width="64" x="452" y="189.4648"/><text fill="#000000" font-family="sans-serif" font-size="14" lengthAdjust="spacing" textLength="44" x="462" y="213">Define</text><path d="M566,193.5869 L556,193.5869 C541,193.5869 541,207.709 526,207.709 L516,207.709 " fill="none" style="stroke:#181818;stroke-width:1.0;"/><rect fill="#F1F1F1" height="36.4883" rx="12.5" ry="12.5" style="stroke:#181818;stroke-width:1.5;" width="178" x="338" y="245.9531"/><text fill="#000000" font-family="sans-serif" font-size="14" lengthAdjust="spacing" textLength="158" x="348" y="269.4883">Use (counter)examples</text><rect fill="#F1F1F1" height="36.4883" rx="12.5" ry="12.5" style="stroke:#181818;stroke-width:1.5;" width="174" x="114" y="217.709"/><text fill="#000000" font-family="sans-serif" font-size="14" lengthAdjust="spacing" textLength="154" x="124" y="241.2441">Mechanical calculation</text><path d="M338,264.1973 L328,264.1973 C313,264.1973 313,235.9531 298,235.9531 L288,235.9531 " fill="none" style="stroke:#181818;stroke-width:1.0;"/><rect fill="#F1F1F1" height="36.4883" rx="12.5" ry="12.5" style="stroke:#181818;stroke-width:1.5;" width="278" x="10" y="274.1973"/><text fill="#000000" font-family="sans-serif" font-size="14" lengthAdjust="spacing" textLength="258" x="20" y="297.7324">Illustrative: show the gist of a concept</text><path d="M338,264.1973 L328,264.1973 C313,264.1973 313,292.4414 298,292.4414 L288,292.4414 " fill="none" style="stroke:#181818;stroke-width:1.0;"/><path d="M566,193.5869 L556,193.5869 C541,193.5869 541,264.1973 526,264.1973 L516,264.1973 " fill="none" style="stroke:#181818;stroke-width:1.0;"/><path d="M699,193.5869 L689,193.5869 C674,193.5869 674,193.5869 659,193.5869 L649,193.5869 " fill="none" style="stroke:#181818;stroke-width:1.0;"/><rect fill="#F1F1F1" height="36.4883" rx="12.5" ry="12.5" style="stroke:#181818;stroke-width:1.5;" width="181" x="468" y="330.6855"/><text fill="#000000" font-family="sans-serif" font-size="14" lengthAdjust="spacing" textLength="161" x="478" y="354.2207">Linearize dependencies</text><path d="M699,193.5869 L689,193.5869 C674,193.5869 674,348.9297 659,348.9297 L649,348.9297 " fill="none" style="stroke:#181818;stroke-width:1.0;"/><path d="M842,560.7607 L832,560.7607 C817,560.7607 817,193.5869 802,193.5869 L792,193.5869 " fill="none" style="stroke:#181818;stroke-width:1.0;"/><rect fill="#F1F1F1" height="36.4883" rx="12.5" ry="12.5" style="stroke:#181818;stroke-width:1.5;" width="72" x="720" y="556.6387"/><text fill="#000000" font-family="sans-serif" font-size="14" lengthAdjust="spacing" textLength="52" x="730" y="580.1738">5. Write</text><rect fill="#F1F1F1" height="36.4883" rx="12.5" ry="12.5" style="stroke:#181818;stroke-width:1.5;" width="119" x="551" y="387.1738"/><text fill="#000000" font-family="sans-serif" font-size="14" lengthAdjust="spacing" textLength="99" x="561" y="410.709">Write bit by bit</text><path d="M720,574.8828 L710,574.8828 C695,574.8828 695,405.418 680,405.418 L670,405.418 " fill="none" style="stroke:#181818;stroke-width:1.0;"/><rect fill="#F1F1F1" height="36.4883" rx="12.5" ry="12.5" style="stroke:#181818;stroke-width:1.5;" width="133" x="537" y="443.6621"/><text fill="#000000" font-family="sans-serif" font-size="14" lengthAdjust="spacing" textLength="113" x="547" y="467.1973">Use a spiral plan</text><path d="M720,574.8828 L710,574.8828 C695,574.8828 695,461.9063 680,461.9063 L670,461.9063 " fill="none" style="stroke:#181818;stroke-width:1.0;"/><rect fill="#F1F1F1" height="36.4883" rx="12.5" ry="12.5" style="stroke:#181818;stroke-width:1.5;" width="274" x="396" y="500.1504"/><text fill="#000000" font-family="sans-serif" font-size="14" lengthAdjust="spacing" textLength="254" x="406" y="523.6855">Define: requisites, index, toc, preface</text><path d="M720,574.8828 L710,574.8828 C695,574.8828 695,518.3945 680,518.3945 L670,518.3945 " fill="none" style="stroke:#181818;stroke-width:1.0;"/><rect fill="#F1F1F1" height="36.4883" rx="12.5" ry="12.5" style="stroke:#181818;stroke-width:1.5;" width="262" x="408" y="556.6387"/><text fill="#000000" font-family="sans-serif" font-size="14" lengthAdjust="spacing" textLength="242" x="418" y="580.1738">Give each section a meaningful title</text><path d="M720,574.8828 L710,574.8828 C695,574.8828 695,574.8828 680,574.8828 L670,574.8828 " fill="none" style="stroke:#181818;stroke-width:1.0;"/><rect fill="#F1F1F1" height="36.4883" rx="12.5" ry="12.5" style="stroke:#181818;stroke-width:1.5;" width="269" x="401" y="613.127"/><text fill="#000000" font-family="sans-serif" font-size="14" lengthAdjust="spacing" textLength="249" x="411" y="636.6621">End each work session in an up beat</text><path d="M720,574.8828 L710,574.8828 C695,574.8828 695,631.3711 680,631.3711 L670,631.3711 " fill="none" style="stroke:#181818;stroke-width:1.0;"/><rect fill="#F1F1F1" height="36.4883" rx="12.5" ry="12.5" style="stroke:#181818;stroke-width:1.5;" width="143" x="527" y="669.6152"/><text fill="#000000" font-family="sans-serif" font-size="14" lengthAdjust="spacing" textLength="123" x="537" y="693.1504">Avoid distractions</text><rect fill="#F1F1F1" height="36.4883" rx="12.5" ry="12.5" style="stroke:#181818;stroke-width:1.5;" width="122" x="355" y="669.6152"/><text fill="#000000" font-family="sans-serif" font-size="14" lengthAdjust="spacing" textLength="102" x="365" y="693.1504">Be unobtrusive</text><path d="M527,687.8594 L517,687.8594 C502,687.8594 502,687.8594 487,687.8594 L477,687.8594 " fill="none" style="stroke:#181818;stroke-width:1.0;"/><path d="M720,574.8828 L710,574.8828 C695,574.8828 695,687.8594 680,687.8594 L670,687.8594 " fill="none" style="stroke:#181818;stroke-width:1.0;"/><rect fill="#F1F1F1" height="36.4883" rx="12.5" ry="12.5" style="stroke:#181818;stroke-width:1.5;" width="55" x="615" y="726.1035"/><text fill="#000000" font-family="sans-serif" font-size="14" lengthAdjust="spacing" textLength="35" x="625" y="749.6387">Stop!</text><path d="M720,574.8828 L710,574.8828 C695,574.8828 695,744.3477 680,744.3477 L670,744.3477 " fill="none" style="stroke:#181818;stroke-width:1.0;"/><path d="M842,560.7607 L832,560.7607 C817,560.7607 817,574.8828 802,574.8828 L792,574.8828 " fill="none" style="stroke:#181818;stroke-width:1.0;"/><rect fill="#F1F1F1" height="36.4883" rx="12.5" ry="12.5" style="stroke:#181818;stroke-width:1.5;" width="170" x="622" y="782.5918"/><text fill="#000000" font-family="sans-serif" font-size="14" lengthAdjust="spacing" textLength="150" x="632" y="806.127">6. Rewrite and rewrite</text><rect fill="#F1F1F1" height="36.4883" rx="12.5" ry="12.5" style="stroke:#181818;stroke-width:1.5;" width="335" x="237" y="782.5918"/><text fill="#000000" font-family="sans-serif" font-size="14" lengthAdjust="spacing" textLength="315" x="247" y="806.127">Rewrite, don't do patch work of the first drafts</text><path d="M622,800.8359 L612,800.8359 C597,800.8359 597,800.8359 582,800.8359 L572,800.8359 " fill="none" style="stroke:#181818;stroke-width:1.0;"/><path d="M842,560.7607 L832,560.7607 C817,560.7607 817,800.8359 802,800.8359 L792,800.8359 " fill="none" style="stroke:#181818;stroke-width:1.0;"/><rect fill="#F1F1F1" height="36.4883" rx="12.5" ry="12.5" style="stroke:#181818;stroke-width:1.5;" width="274" x="518" y="952.0566"/><text fill="#000000" font-family="sans-serif" font-size="14" lengthAdjust="spacing" textLength="254" x="528" y="975.5918">X. Pay attention to mechanical details</text><rect fill="#F1F1F1" height="36.4883" rx="12.5" ry="12.5" style="stroke:#181818;stroke-width:1.5;" width="168" x="300" y="839.0801"/><text fill="#000000" font-family="sans-serif" font-size="14" lengthAdjust="spacing" textLength="148" x="310" y="862.6152">Diction (orthography)</text><path d="M518,970.3008 L508,970.3008 C493,970.3008 493,857.3242 478,857.3242 L468,857.3242 " fill="none" style="stroke:#181818;stroke-width:1.0;"/><rect fill="#F1F1F1" height="36.4883" rx="12.5" ry="12.5" style="stroke:#181818;stroke-width:1.5;" width="79" x="389" y="952.0566"/><text fill="#000000" font-family="sans-serif" font-size="14" lengthAdjust="spacing" textLength="59" x="399" y="975.5918">Notation</text><rect fill="#F1F1F1" height="36.4883" rx="12.5" ry="12.5" style="stroke:#181818;stroke-width:1.5;" width="110" x="229" y="895.5684"/><text fill="#000000" font-family="sans-serif" font-size="14" lengthAdjust="spacing" textLength="90" x="239" y="919.1035">Be consistent</text><path d="M389,970.3008 L379,970.3008 C364,970.3008 364,913.8125 349,913.8125 L339,913.8125 " fill="none" style="stroke:#181818;stroke-width:1.0;"/><rect fill="#F1F1F1" height="36.4883" rx="12.5" ry="12.5" style="stroke:#181818;stroke-width:1.5;" width="265" x="74" y="952.0566"/><text fill="#000000" font-family="sans-serif" font-size="14" lengthAdjust="spacing" textLength="245" x="84" y="975.5918">Design your notation before writing</text><path d="M389,970.3008 L379,970.3008 C364,970.3008 364,970.3008 349,970.3008 L339,970.3008 " fill="none" style="stroke:#181818;stroke-width:1.0;"/><rect fill="#F1F1F1" height="36.4883" rx="12.5" ry="12.5" style="stroke:#181818;stroke-width:1.5;" width="143" x="196" y="1008.5449"/><text fill="#000000" font-family="sans-serif" font-size="14" lengthAdjust="spacing" textLength="123" x="206" y="1032.0801">Avoid distractions</text><path d="M389,970.3008 L379,970.3008 C364,970.3008 364,1026.7891 349,1026.7891 L339,1026.7891 " fill="none" style="stroke:#181818;stroke-width:1.0;"/><path d="M518,970.3008 L508,970.3008 C493,970.3008 493,970.3008 478,970.3008 L468,970.3008 " fill="none" style="stroke:#181818;stroke-width:1.0;"/><rect fill="#F1F1F1" height="36.4883" rx="12.5" ry="12.5" style="stroke:#181818;stroke-width:1.5;" width="102" x="366" y="1065.0332"/><text fill="#000000" font-family="sans-serif" font-size="14" lengthAdjust="spacing" textLength="82" x="376" y="1088.5684">Punctuation</text><rect fill="#F1F1F1" height="36.4883" rx="12.5" ry="12.5" style="stroke:#181818;stroke-width:1.5;" width="121" x="195" y="1065.0332"/><text fill="#000000" font-family="sans-serif" font-size="14" lengthAdjust="spacing" textLength="101" x="205" y="1088.5684">Use it correctly</text><path d="M366,1083.2773 L356,1083.2773 C341,1083.2773 341,1083.2773 326,1083.2773 L316,1083.2773 " fill="none" style="stroke:#181818;stroke-width:1.0;"/><path d="M518,970.3008 L508,970.3008 C493,970.3008 493,1083.2773 478,1083.2773 L468,1083.2773 " fill="none" style="stroke:#181818;stroke-width:1.0;"/><path d="M842,560.7607 L832,560.7607 C817,560.7607 817,970.3008 802,970.3008 L792,970.3008 " fill="none" style="stroke:#181818;stroke-width:1.0;"/><!--MD5=[20d98f10c44e76ed5fd58e0115148555]
@startmindmap
+ How to write mathematics

++ 1. Have something to say
+++ Be clear and concise
+++ Common errors
++++ Too many ideas
++++ Writing a lot about nothing

++ 2. Have someone to say it to
+++ Know your audience
+++ Write for your audience
+++ Write for the ages

++ 3. Organize
+++ Minimize resistance
+++ Use straightforward connections
+++ Minimize pre-requisites/dependencies
+++ Outline
++++ Be logical (chronological, interconnections)
++++ Psychologically digestible exposition
++++ Say what you're going to say\nsay it\nsay what you said
++++ Be brief
+++ Focus attention on insights \nfrom particular to general cases

- - 4. Arrange
- - - Use the spiral plan
- - - Organize
- - - - Introduce
- - - - Motivate
- - - - Define
- - - - Use (counter)examples
- - - - - Mechanical calculation
- - - - - Illustrative: show the gist of a concept
- - - Linearize dependencies

- - 5. Write
- - - Write bit by bit
- - - Use a spiral plan
- - - Define: requisites, index, toc, preface
- - - Give each section a meaningful title
- - - End each work session in an up beat
- - - Avoid distractions
- - - - Be unobtrusive
- - - Stop!

- - 6. Rewrite and rewrite
- - - Rewrite, don't do patch work of the first drafts

- - X. Pay attention to mechanical details
- - - Diction (orthography)
- - - Notation
- - - - Be consistent
- - - - Design your notation before writing
- - - - Avoid distractions
- - - Punctuation
- - - - Use it correctly
@endmindmap

PlantUML version 1.2022.7(Mon Aug 22 19:01:30 CEST 2022)
(GPL source distribution)
Java Runtime: OpenJDK Runtime Environment
JVM: OpenJDK 64-Bit Server VM
Default Encoding: UTF-8
Language: de
Country: DE
--></g></svg>