<?xml version="1.0" encoding="us-ascii" standalone="no"?><svg xmlns="http://www.w3.org/2000/svg" xmlns:xlink="http://www.w3.org/1999/xlink" contentStyleType="text/css" height="754.4px" preserveAspectRatio="none" style="width:1018px;height:754px;background:#FFFFFF;" version="1.1" viewBox="0 0 1018 754" width="1018.4px" zoomAndPan="magnify"><defs/><g><rect fill="#F1F1F1" height="42.3813" rx="10" ry="10" style="stroke:#181818;stroke-width:1.2000000000000002;" width="91.2" x="417.6" y="355.418"/><text fill="#000000" font-family="sans-serif" font-size="11.2" lengthAdjust="spacing" textLength="58.4" x="434" y="374.2461">Building IT</text><text fill="#000000" font-family="sans-serif" font-size="11.2" lengthAdjust="spacing" textLength="75.2" x="425.6" y="387.4367">Infrastructure</text><rect fill="#F1F1F1" height="42.3813" rx="10" ry="10" style="stroke:#181818;stroke-width:1.2000000000000002;" width="88" x="548.8" y="135.5719"/><text fill="#000000" font-family="sans-serif" font-size="11.2" lengthAdjust="spacing" textLength="72" x="556.8" y="154.4">Development</text><text fill="#000000" font-family="sans-serif" font-size="11.2" lengthAdjust="spacing" textLength="42.4" x="571.6" y="167.5906">process</text><rect fill="#8FBC8F" height="29.1906" rx="10" ry="10" style="stroke:#181818;stroke-width:1.2000000000000002;" width="44.8" x="676.8" y="16"/><text fill="#000000" font-family="sans-serif" font-size="11.2" lengthAdjust="spacing" textLength="28.8" x="684.8" y="34.8281">Code</text><path d="M636.8,156.7625 L644.8,156.7625 C656.8,156.7625 656.8,30.5953 668.8,30.5953 L676.8,30.5953 " fill="none" style="stroke:#181818;stroke-width:0.8000000000000002;"/><rect fill="#F1F1F1" height="29.1906" rx="10" ry="10" style="stroke:#181818;stroke-width:1.2000000000000002;" width="140" x="676.8" y="61.1906"/><text fill="#000000" font-family="sans-serif" font-size="11.2" lengthAdjust="spacing" textLength="124" x="684.8" y="80.0188">Evolving infrastructure</text><path d="M636.8,156.7625 L644.8,156.7625 C656.8,156.7625 656.8,75.7859 668.8,75.7859 L676.8,75.7859 " fill="none" style="stroke:#181818;stroke-width:0.8000000000000002;"/><rect fill="#F1F1F1" height="29.1906" rx="10" ry="10" style="stroke:#181818;stroke-width:1.2000000000000002;" width="102.4" x="676.8" y="142.1672"/><text fill="#000000" font-family="sans-serif" font-size="11.2" lengthAdjust="spacing" textLength="86.4" x="684.8" y="160.9953">Version Control</text><rect fill="#F1F1F1" height="29.1906" rx="10" ry="10" style="stroke:#181818;stroke-width:1.2000000000000002;" width="52.8" x="819.2" y="142.1672"/><text fill="#000000" font-family="sans-serif" font-size="11.2" lengthAdjust="spacing" textLength="36.8" x="827.2" y="160.9953">GitOps</text><rect fill="#E6E6FA" height="42.3813" rx="10" ry="10" style="stroke:#181818;stroke-width:1.2000000000000002;" width="91.2" x="912" y="106.3813"/><text fill="#000000" font-family="sans-serif" font-size="11.2" lengthAdjust="spacing" textLength="75.2" x="920" y="125.2094">Infrastructure</text><text fill="#000000" font-family="sans-serif" font-size="11.2" lengthAdjust="spacing" textLength="44" x="935.6" y="138.4">as Code</text><path d="M872,156.7625 L880,156.7625 C892,156.7625 892,127.5719 904,127.5719 L912,127.5719 " fill="none" style="stroke:#181818;stroke-width:0.8000000000000002;"/><rect fill="#00FA9A" height="42.3813" rx="10" ry="10" style="stroke:#181818;stroke-width:1.2000000000000002;" width="89.6" x="912" y="164.7625"/><text fill="#000000" font-family="sans-serif" font-size="11.2" lengthAdjust="spacing" textLength="73.6" x="920" y="183.5906">Quality Gated</text><text fill="#000000" font-family="sans-serif" font-size="11.2" lengthAdjust="spacing" textLength="48.8" x="932.4" y="196.7813">Pipelines</text><path d="M872,156.7625 L880,156.7625 C892,156.7625 892,185.9531 904,185.9531 L912,185.9531 " fill="none" style="stroke:#181818;stroke-width:0.8000000000000002;"/><path d="M779.2,156.7625 L787.2,156.7625 C799.2,156.7625 799.2,156.7625 811.2,156.7625 L819.2,156.7625 " fill="none" style="stroke:#181818;stroke-width:0.8000000000000002;"/><path d="M636.8,156.7625 L644.8,156.7625 C656.8,156.7625 656.8,156.7625 668.8,156.7625 L676.8,156.7625 " fill="none" style="stroke:#181818;stroke-width:0.8000000000000002;"/><rect fill="#00FA9A" height="29.1906" rx="10" ry="10" style="stroke:#181818;stroke-width:1.2000000000000002;" width="126.4" x="676.8" y="223.1438"/><text fill="#000000" font-family="sans-serif" font-size="11.2" lengthAdjust="spacing" textLength="110.4" x="684.8" y="241.9719">Continuous Delivery</text><path d="M636.8,156.7625 L644.8,156.7625 C656.8,156.7625 656.8,237.7391 668.8,237.7391 L676.8,237.7391 " fill="none" style="stroke:#181818;stroke-width:0.8000000000000002;"/><rect fill="#00FA9A" height="29.1906" rx="10" ry="10" style="stroke:#181818;stroke-width:1.2000000000000002;" width="144" x="676.8" y="268.3344"/><text fill="#000000" font-family="sans-serif" font-size="11.2" lengthAdjust="spacing" textLength="128" x="684.8" y="287.1625">Continuous Integration</text><path d="M636.8,156.7625 L644.8,156.7625 C656.8,156.7625 656.8,282.9297 668.8,282.9297 L676.8,282.9297 " fill="none" style="stroke:#181818;stroke-width:0.8000000000000002;"/><path d="M508.8,376.6086 L516.8,376.6086 C528.8,376.6086 528.8,156.7625 540.8,156.7625 L548.8,156.7625 " fill="none" style="stroke:#181818;stroke-width:0.8000000000000002;"/><rect fill="#8FBC8F" height="42.3813" rx="10" ry="10" style="stroke:#181818;stroke-width:1.2000000000000002;" width="79.2" x="548.8" y="421.7992"/><text fill="#000000" font-family="sans-serif" font-size="11.2" lengthAdjust="spacing" textLength="63.2" x="556.8" y="440.6273">All changes</text><text fill="#000000" font-family="sans-serif" font-size="11.2" lengthAdjust="spacing" textLength="49.6" x="563.6" y="453.818">are Code</text><rect fill="#87CEEB" height="29.1906" rx="10" ry="10" style="stroke:#181818;stroke-width:1.2000000000000002;" width="80.8" x="668" y="313.525"/><text fill="#000000" font-family="sans-serif" font-size="11.2" lengthAdjust="spacing" textLength="64.8" x="676" y="332.3531">Automation</text><path d="M628,442.9898 L636,442.9898 C648,442.9898 648,328.1203 660,328.1203 L668,328.1203 " fill="none" style="stroke:#181818;stroke-width:0.8000000000000002;"/><rect fill="#F1F1F1" height="42.3813" rx="10" ry="10" style="stroke:#181818;stroke-width:1.2000000000000002;" width="71.2" x="668" y="374.7156"/><text fill="#000000" font-family="sans-serif" font-size="11.2" lengthAdjust="spacing" textLength="48" x="679.6" y="393.5438">Software</text><text fill="#000000" font-family="sans-serif" font-size="11.2" lengthAdjust="spacing" textLength="55.2" x="676" y="406.7344">Defined ...</text><rect fill="#F1F1F1" height="29.1906" rx="10" ry="10" style="stroke:#181818;stroke-width:1.2000000000000002;" width="80.8" x="779.2" y="358.7156"/><text fill="#000000" font-family="sans-serif" font-size="11.2" lengthAdjust="spacing" textLength="64.8" x="787.2" y="377.5438">Data Center</text><rect fill="#E6E6FA" height="29.1906" rx="10" ry="10" style="stroke:#181818;stroke-width:1.2000000000000002;" width="91.2" x="900" y="358.7156"/><text fill="#000000" font-family="sans-serif" font-size="11.2" lengthAdjust="spacing" textLength="75.2" x="908" y="377.5438">Infrastructure</text><path d="M860,373.3109 L868,373.3109 C880,373.3109 880,373.3109 892,373.3109 L900,373.3109 " fill="none" style="stroke:#181818;stroke-width:0.8000000000000002;"/><path d="M739.2,395.9063 L747.2,395.9063 C759.2,395.9063 759.2,373.3109 771.2,373.3109 L779.2,373.3109 " fill="none" style="stroke:#181818;stroke-width:0.8000000000000002;"/><rect fill="#F1F1F1" height="29.1906" rx="10" ry="10" style="stroke:#181818;stroke-width:1.2000000000000002;" width="76.8" x="779.2" y="403.9063"/><text fill="#000000" font-family="sans-serif" font-size="11.2" lengthAdjust="spacing" textLength="60.8" x="787.2" y="422.7344">Operations</text><rect fill="#F1F1F1" height="29.1906" rx="10" ry="10" style="stroke:#181818;stroke-width:1.2000000000000002;" width="64.8" x="896" y="403.9063"/><text fill="#000000" font-family="sans-serif" font-size="11.2" lengthAdjust="spacing" textLength="48.8" x="904" y="422.7344">Pipelines</text><path d="M856,418.5016 L864,418.5016 C876,418.5016 876,418.5016 888,418.5016 L896,418.5016 " fill="none" style="stroke:#181818;stroke-width:0.8000000000000002;"/><path d="M739.2,395.9063 L747.2,395.9063 C759.2,395.9063 759.2,418.5016 771.2,418.5016 L779.2,418.5016 " fill="none" style="stroke:#181818;stroke-width:0.8000000000000002;"/><path d="M628,442.9898 L636,442.9898 C648,442.9898 648,395.9063 660,395.9063 L668,395.9063 " fill="none" style="stroke:#181818;stroke-width:0.8000000000000002;"/><rect fill="#F1F1F1" height="42.3813" rx="10" ry="10" style="stroke:#181818;stroke-width:1.2000000000000002;" width="96.8" x="668" y="471.6922"/><text fill="#000000" font-family="sans-serif" font-size="11.2" lengthAdjust="spacing" textLength="41.6" x="695.6" y="490.5203">Textual</text><text fill="#000000" font-family="sans-serif" font-size="11.2" lengthAdjust="spacing" textLength="80.8" x="676" y="503.7109">representation</text><rect fill="#F5DEB3" height="29.1906" rx="10" ry="10" style="stroke:#181818;stroke-width:1.2000000000000002;" width="94.4" x="804.8" y="449.0969"/><text fill="#000000" font-family="sans-serif" font-size="11.2" lengthAdjust="spacing" textLength="78.4" x="812.8" y="467.925">Composability</text><path d="M764.8,492.8828 L772.8,492.8828 C784.8,492.8828 784.8,463.6922 796.8,463.6922 L804.8,463.6922 " fill="none" style="stroke:#181818;stroke-width:0.8000000000000002;"/><rect fill="#F1F1F1" height="42.3813" rx="10" ry="10" style="stroke:#181818;stroke-width:1.2000000000000002;" width="76" x="804.8" y="494.2875"/><text fill="#000000" font-family="sans-serif" font-size="11.2" lengthAdjust="spacing" textLength="40" x="822.8" y="513.1156">Explicit</text><text fill="#000000" font-family="sans-serif" font-size="11.2" lengthAdjust="spacing" textLength="60" x="812.8" y="526.3063">knowledge</text><rect fill="#F1F1F1" height="42.3813" rx="10" ry="10" style="stroke:#181818;stroke-width:1.2000000000000002;" width="88" x="920.8" y="494.2875"/><text fill="#000000" font-family="sans-serif" font-size="11.2" lengthAdjust="spacing" textLength="60.8" x="934.4" y="513.1156">Knowledge</text><text fill="#000000" font-family="sans-serif" font-size="11.2" lengthAdjust="spacing" textLength="72" x="928.8" y="526.3063">management</text><path d="M880.8,515.4781 L888.8,515.4781 C900.8,515.4781 900.8,515.4781 912.8,515.4781 L920.8,515.4781 " fill="none" style="stroke:#181818;stroke-width:0.8000000000000002;"/><path d="M764.8,492.8828 L772.8,492.8828 C784.8,492.8828 784.8,515.4781 796.8,515.4781 L804.8,515.4781 " fill="none" style="stroke:#181818;stroke-width:0.8000000000000002;"/><path d="M628,442.9898 L636,442.9898 C648,442.9898 648,492.8828 660,492.8828 L668,492.8828 " fill="none" style="stroke:#181818;stroke-width:0.8000000000000002;"/><rect fill="#DDA0DD" height="42.3813" rx="10" ry="10" style="stroke:#181818;stroke-width:1.2000000000000002;" width="91.2" x="668" y="530.0734"/><text fill="#000000" font-family="sans-serif" font-size="11.2" lengthAdjust="spacing" textLength="58.4" x="684.4" y="548.9016">Immutable</text><text fill="#000000" font-family="sans-serif" font-size="11.2" lengthAdjust="spacing" textLength="75.2" x="676" y="562.0922">infrastructure</text><path d="M628,442.9898 L636,442.9898 C648,442.9898 648,551.2641 660,551.2641 L668,551.2641 " fill="none" style="stroke:#181818;stroke-width:0.8000000000000002;"/><path d="M508.8,376.6086 L516.8,376.6086 C528.8,376.6086 528.8,442.9898 540.8,442.9898 L548.8,442.9898 " fill="none" style="stroke:#181818;stroke-width:0.8000000000000002;"/><rect fill="#F1F1F1" height="42.3813" rx="10" ry="10" style="stroke:#181818;stroke-width:1.2000000000000002;" width="106.4" x="548.8" y="641.6453"/><text fill="#000000" font-family="sans-serif" font-size="11.2" lengthAdjust="spacing" textLength="48.8" x="577.6" y="660.4734">Avoiding</text><text fill="#000000" font-family="sans-serif" font-size="11.2" lengthAdjust="spacing" textLength="90.4" x="556.8" y="673.6641">Ad-hoc changes</text><rect fill="#DDA0DD" height="29.1906" rx="10" ry="10" style="stroke:#181818;stroke-width:1.2000000000000002;" width="145.6" x="695.2" y="617.6453"/><text fill="#000000" font-family="sans-serif" font-size="11.2" lengthAdjust="spacing" textLength="129.6" x="703.2" y="636.4734">Immutable components</text><rect fill="#F1F1F1" height="29.1906" rx="10" ry="10" style="stroke:#181818;stroke-width:1.2000000000000002;" width="99.2" x="880.8" y="588.4547"/><text fill="#000000" font-family="sans-serif" font-size="11.2" lengthAdjust="spacing" textLength="83.2" x="888.8" y="607.2828">Cattle, not pets</text><path d="M840.8,632.2406 L848.8,632.2406 C860.8,632.2406 860.8,603.05 872.8,603.05 L880.8,603.05 " fill="none" style="stroke:#181818;stroke-width:0.8000000000000002;"/><rect fill="#F1F1F1" height="42.3813" rx="10" ry="10" style="stroke:#181818;stroke-width:1.2000000000000002;" width="84" x="880.8" y="633.6453"/><text fill="#000000" font-family="sans-serif" font-size="11.2" lengthAdjust="spacing" textLength="48" x="898.8" y="652.4734">Stateless</text><text fill="#000000" font-family="sans-serif" font-size="11.2" lengthAdjust="spacing" textLength="68" x="888.8" y="665.6641">Applications</text><path d="M840.8,632.2406 L848.8,632.2406 C860.8,632.2406 860.8,654.8359 872.8,654.8359 L880.8,654.8359 " fill="none" style="stroke:#181818;stroke-width:0.8000000000000002;"/><path d="M655.2,662.8359 L663.2,662.8359 C675.2,662.8359 675.2,632.2406 687.2,632.2406 L695.2,632.2406 " fill="none" style="stroke:#181818;stroke-width:0.8000000000000002;"/><rect fill="#F1F1F1" height="29.1906" rx="10" ry="10" style="stroke:#181818;stroke-width:1.2000000000000002;" width="148.8" x="695.2" y="662.8359"/><text fill="#000000" font-family="sans-serif" font-size="11.2" lengthAdjust="spacing" textLength="132.8" x="703.2" y="681.6641">Faster Disaster Recovery</text><path d="M655.2,662.8359 L663.2,662.8359 C675.2,662.8359 675.2,677.4313 687.2,677.4313 L695.2,677.4313 " fill="none" style="stroke:#181818;stroke-width:0.8000000000000002;"/><rect fill="#F1F1F1" height="29.1906" rx="10" ry="10" style="stroke:#181818;stroke-width:1.2000000000000002;" width="156" x="695.2" y="708.0266"/><text fill="#000000" font-family="sans-serif" font-size="11.2" lengthAdjust="spacing" textLength="140" x="703.2" y="726.8547">Slower to fix certain bugs</text><path d="M655.2,662.8359 L663.2,662.8359 C675.2,662.8359 675.2,722.6219 687.2,722.6219 L695.2,722.6219 " fill="none" style="stroke:#181818;stroke-width:0.8000000000000002;"/><path d="M508.8,376.6086 L516.8,376.6086 C528.8,376.6086 528.8,662.8359 540.8,662.8359 L548.8,662.8359 " fill="none" style="stroke:#181818;stroke-width:0.8000000000000002;"/><rect fill="#F1F1F1" height="29.1906" rx="10" ry="10" style="stroke:#181818;stroke-width:1.2000000000000002;" width="71.2" x="306.4" y="103.5719"/><text fill="#000000" font-family="sans-serif" font-size="11.2" lengthAdjust="spacing" textLength="55.2" x="314.4" y="122.4">Standards</text><rect fill="#F1F1F1" height="29.1906" rx="10" ry="10" style="stroke:#181818;stroke-width:1.2000000000000002;" width="128.8" x="137.6" y="35.7859"/><text fill="#000000" font-family="sans-serif" font-size="11.2" lengthAdjust="spacing" textLength="112.8" x="145.6" y="54.6141">Generic components</text><path d="M306.4,118.1672 L298.4,118.1672 C286.4,118.1672 286.4,50.3813 274.4,50.3813 L266.4,50.3813 " fill="none" style="stroke:#181818;stroke-width:0.8000000000000002;"/><rect fill="#F5DEB3" height="29.1906" rx="10" ry="10" style="stroke:#181818;stroke-width:1.2000000000000002;" width="94.4" x="172" y="80.9766"/><text fill="#000000" font-family="sans-serif" font-size="11.2" lengthAdjust="spacing" textLength="78.4" x="180" y="99.8047">Composability</text><path d="M306.4,118.1672 L298.4,118.1672 C286.4,118.1672 286.4,95.5719 274.4,95.5719 L266.4,95.5719 " fill="none" style="stroke:#181818;stroke-width:0.8000000000000002;"/><rect fill="#F1F1F1" height="29.1906" rx="10" ry="10" style="stroke:#181818;stroke-width:1.2000000000000002;" width="85.6" x="180.8" y="126.1672"/><text fill="#000000" font-family="sans-serif" font-size="11.2" lengthAdjust="spacing" textLength="69.6" x="188.8" y="144.9953">Easy to learn</text><path d="M306.4,118.1672 L298.4,118.1672 C286.4,118.1672 286.4,140.7625 274.4,140.7625 L266.4,140.7625 " fill="none" style="stroke:#181818;stroke-width:0.8000000000000002;"/><rect fill="#F1F1F1" height="29.1906" rx="10" ry="10" style="stroke:#181818;stroke-width:1.2000000000000002;" width="72" x="194.4" y="171.3578"/><text fill="#000000" font-family="sans-serif" font-size="11.2" lengthAdjust="spacing" textLength="56" x="202.4" y="190.1859">Easy to fix</text><rect fill="#FFB6C1" height="29.1906" rx="10" ry="10" style="stroke:#181818;stroke-width:1.2000000000000002;" width="139.2" x="15.2" y="171.3578"/><text fill="#000000" font-family="sans-serif" font-size="11.2" lengthAdjust="spacing" textLength="123.2" x="23.2" y="190.1859">Easy Disaster Recovery</text><path d="M194.4,185.9531 L186.4,185.9531 C174.4,185.9531 174.4,185.9531 162.4,185.9531 L154.4,185.9531 " fill="none" style="stroke:#181818;stroke-width:0.8000000000000002;"/><path d="M306.4,118.1672 L298.4,118.1672 C286.4,118.1672 286.4,185.9531 274.4,185.9531 L266.4,185.9531 " fill="none" style="stroke:#181818;stroke-width:0.8000000000000002;"/><path d="M417.6,376.6086 L409.6,376.6086 C397.6,376.6086 397.6,118.1672 385.6,118.1672 L377.6,118.1672 " fill="none" style="stroke:#181818;stroke-width:0.8000000000000002;"/><rect fill="#F1F1F1" height="29.1906" rx="10" ry="10" style="stroke:#181818;stroke-width:1.2000000000000002;" width="55.2" x="322.4" y="358.7156"/><text fill="#000000" font-family="sans-serif" font-size="11.2" lengthAdjust="spacing" textLength="39.2" x="330.4" y="377.5438">Re-use</text><rect fill="#F1F1F1" height="29.1906" rx="10" ry="10" style="stroke:#181818;stroke-width:1.2000000000000002;" width="79.2" x="203.2" y="216.5484"/><text fill="#000000" font-family="sans-serif" font-size="11.2" lengthAdjust="spacing" textLength="63.2" x="211.2" y="235.3766">Gold Server</text><rect fill="#E0FFFF" height="29.1906" rx="10" ry="10" style="stroke:#181818;stroke-width:1.2000000000000002;" width="124" x="39.2" y="216.5484"/><text fill="#000000" font-family="sans-serif" font-size="11.2" lengthAdjust="spacing" textLength="108" x="47.2" y="235.3766">Artefacts repository</text><path d="M203.2,231.1438 L195.2,231.1438 C183.2,231.1438 183.2,231.1438 171.2,231.1438 L163.2,231.1438 " fill="none" style="stroke:#181818;stroke-width:0.8000000000000002;"/><path d="M322.4,373.3109 L314.4,373.3109 C302.4,373.3109 302.4,231.1438 290.4,231.1438 L282.4,231.1438 " fill="none" style="stroke:#181818;stroke-width:0.8000000000000002;"/><rect fill="#F1F1F1" height="42.3813" rx="10" ry="10" style="stroke:#181818;stroke-width:1.2000000000000002;" width="92.8" x="189.6" y="261.7391"/><text fill="#000000" font-family="sans-serif" font-size="11.2" lengthAdjust="spacing" textLength="76.8" x="197.6" y="280.5672">Golden Server</text><text fill="#000000" font-family="sans-serif" font-size="11.2" lengthAdjust="spacing" textLength="41.6" x="215.2" y="293.7578">[image]</text><rect fill="#F1F1F1" height="29.1906" rx="10" ry="10" style="stroke:#181818;stroke-width:1.2000000000000002;" width="104.8" x="44.8" y="268.3344"/><text fill="#000000" font-family="sans-serif" font-size="11.2" lengthAdjust="spacing" textLength="88.8" x="52.8" y="287.1625">Template Server</text><path d="M189.6,282.9297 L181.6,282.9297 C169.6,282.9297 169.6,282.9297 157.6,282.9297 L149.6,282.9297 " fill="none" style="stroke:#181818;stroke-width:0.8000000000000002;"/><path d="M322.4,373.3109 L314.4,373.3109 C302.4,373.3109 302.4,282.9297 290.4,282.9297 L282.4,282.9297 " fill="none" style="stroke:#181818;stroke-width:0.8000000000000002;"/><rect fill="#F1F1F1" height="29.1906" rx="10" ry="10" style="stroke:#181818;stroke-width:1.2000000000000002;" width="76.8" x="205.6" y="342.7156"/><text fill="#000000" font-family="sans-serif" font-size="11.2" lengthAdjust="spacing" textLength="60.8" x="213.6" y="361.5438">Repeatable</text><rect fill="#87CEEB" height="29.1906" rx="10" ry="10" style="stroke:#181818;stroke-width:1.2000000000000002;" width="80.8" x="84.8" y="320.1203"/><text fill="#000000" font-family="sans-serif" font-size="11.2" lengthAdjust="spacing" textLength="64.8" x="92.8" y="338.9484">Automation</text><path d="M205.6,357.3109 L197.6,357.3109 C185.6,357.3109 185.6,334.7156 173.6,334.7156 L165.6,334.7156 " fill="none" style="stroke:#181818;stroke-width:0.8000000000000002;"/><rect fill="#F1F1F1" height="29.1906" rx="10" ry="10" style="stroke:#181818;stroke-width:1.2000000000000002;" width="88" x="77.6" y="365.3109"/><text fill="#000000" font-family="sans-serif" font-size="11.2" lengthAdjust="spacing" textLength="72" x="85.6" y="384.1391">Deterministic</text><path d="M205.6,357.3109 L197.6,357.3109 C185.6,357.3109 185.6,379.9063 173.6,379.9063 L165.6,379.9063 " fill="none" style="stroke:#181818;stroke-width:0.8000000000000002;"/><path d="M322.4,373.3109 L314.4,373.3109 C302.4,373.3109 302.4,357.3109 290.4,357.3109 L282.4,357.3109 " fill="none" style="stroke:#181818;stroke-width:0.8000000000000002;"/><rect fill="#F1F1F1" height="29.1906" rx="10" ry="10" style="stroke:#181818;stroke-width:1.2000000000000002;" width="67.2" x="215.2" y="433.0969"/><text fill="#000000" font-family="sans-serif" font-size="11.2" lengthAdjust="spacing" textLength="51.2" x="223.2" y="451.925">Efficiency</text><rect fill="#F1F1F1" height="29.1906" rx="10" ry="10" style="stroke:#181818;stroke-width:1.2000000000000002;" width="103.2" x="72" y="410.5016"/><text fill="#000000" font-family="sans-serif" font-size="11.2" lengthAdjust="spacing" textLength="87.2" x="80" y="429.3297">Labor reduction</text><path d="M215.2,447.6922 L207.2,447.6922 C195.2,447.6922 195.2,425.0969 183.2,425.0969 L175.2,425.0969 " fill="none" style="stroke:#181818;stroke-width:0.8000000000000002;"/><rect fill="#F1F1F1" height="29.1906" rx="10" ry="10" style="stroke:#181818;stroke-width:1.2000000000000002;" width="96.8" x="78.4" y="455.6922"/><text fill="#000000" font-family="sans-serif" font-size="11.2" lengthAdjust="spacing" textLength="80.8" x="86.4" y="474.5203">Cost reduction</text><path d="M215.2,447.6922 L207.2,447.6922 C195.2,447.6922 195.2,470.2875 183.2,470.2875 L175.2,470.2875 " fill="none" style="stroke:#181818;stroke-width:0.8000000000000002;"/><path d="M322.4,373.3109 L314.4,373.3109 C302.4,373.3109 302.4,447.6922 290.4,447.6922 L282.4,447.6922 " fill="none" style="stroke:#181818;stroke-width:0.8000000000000002;"/><rect fill="#FFB6C1" height="29.1906" rx="10" ry="10" style="stroke:#181818;stroke-width:1.2000000000000002;" width="148" x="134.4" y="500.8828"/><text fill="#000000" font-family="sans-serif" font-size="11.2" lengthAdjust="spacing" textLength="132" x="142.4" y="519.7109">Easier Disaster Recovery</text><path d="M322.4,373.3109 L314.4,373.3109 C302.4,373.3109 302.4,515.4781 290.4,515.4781 L282.4,515.4781 " fill="none" style="stroke:#181818;stroke-width:0.8000000000000002;"/><path d="M417.6,376.6086 L409.6,376.6086 C397.6,376.6086 397.6,373.3109 385.6,373.3109 L377.6,373.3109 " fill="none" style="stroke:#181818;stroke-width:0.8000000000000002;"/><rect fill="#F1F1F1" height="29.1906" rx="10" ry="10" style="stroke:#181818;stroke-width:1.2000000000000002;" width="72.8" x="304.8" y="617.157"/><text fill="#000000" font-family="sans-serif" font-size="11.2" lengthAdjust="spacing" textLength="56.8" x="312.8" y="635.9852">Autonomy</text><rect fill="#F1F1F1" height="29.1906" rx="10" ry="10" style="stroke:#181818;stroke-width:1.2000000000000002;" width="77.6" x="187.2" y="546.0734"/><text fill="#000000" font-family="sans-serif" font-size="11.2" lengthAdjust="spacing" textLength="61.6" x="195.2" y="564.9016">Pull &gt; Push</text><path d="M304.8,631.7523 L296.8,631.7523 C284.8,631.7523 284.8,560.6688 272.8,560.6688 L264.8,560.6688 " fill="none" style="stroke:#181818;stroke-width:0.8000000000000002;"/><rect fill="#F1F1F1" height="42.3813" rx="10" ry="10" style="stroke:#181818;stroke-width:1.2000000000000002;" width="87.2" x="177.6" y="591.2641"/><text fill="#000000" font-family="sans-serif" font-size="11.2" lengthAdjust="spacing" textLength="71.2" x="185.6" y="610.0922">Autonomous</text><text fill="#000000" font-family="sans-serif" font-size="11.2" lengthAdjust="spacing" textLength="35.2" x="203.6" y="623.2828">clients</text><rect fill="#F1F1F1" height="29.1906" rx="10" ry="10" style="stroke:#181818;stroke-width:1.2000000000000002;" width="105.6" x="32" y="552.6688"/><text fill="#000000" font-family="sans-serif" font-size="11.2" lengthAdjust="spacing" textLength="89.6" x="40" y="571.4969">Decentralization</text><path d="M177.6,612.4547 L169.6,612.4547 C157.6,612.4547 157.6,567.2641 145.6,567.2641 L137.6,567.2641 " fill="none" style="stroke:#181818;stroke-width:0.8000000000000002;"/><rect fill="#F1F1F1" height="29.1906" rx="10" ry="10" style="stroke:#181818;stroke-width:1.2000000000000002;" width="97.6" x="40" y="597.8594"/><text fill="#000000" font-family="sans-serif" font-size="11.2" lengthAdjust="spacing" textLength="81.6" x="48" y="616.6875">No bottlenecks</text><path d="M177.6,612.4547 L169.6,612.4547 C157.6,612.4547 157.6,612.4547 145.6,612.4547 L137.6,612.4547 " fill="none" style="stroke:#181818;stroke-width:0.8000000000000002;"/><rect fill="#F1F1F1" height="29.1906" rx="10" ry="10" style="stroke:#181818;stroke-width:1.2000000000000002;" width="129.6" x="8" y="643.05"/><text fill="#000000" font-family="sans-serif" font-size="11.2" lengthAdjust="spacing" textLength="113.6" x="16" y="661.8781">Horizontally scalable</text><path d="M177.6,612.4547 L169.6,612.4547 C157.6,612.4547 157.6,657.6453 145.6,657.6453 L137.6,657.6453 " fill="none" style="stroke:#181818;stroke-width:0.8000000000000002;"/><path d="M304.8,631.7523 L296.8,631.7523 C284.8,631.7523 284.8,612.4547 272.8,612.4547 L264.8,612.4547 " fill="none" style="stroke:#181818;stroke-width:0.8000000000000002;"/><rect fill="#E0FFFF" height="29.1906" rx="10" ry="10" style="stroke:#181818;stroke-width:1.2000000000000002;" width="150.4" x="114.4" y="688.2406"/><text fill="#000000" font-family="sans-serif" font-size="11.2" lengthAdjust="spacing" textLength="134.4" x="122.4" y="707.0688">Passive [artefact] servers</text><path d="M304.8,631.7523 L296.8,631.7523 C284.8,631.7523 284.8,702.8359 272.8,702.8359 L264.8,702.8359 " fill="none" style="stroke:#181818;stroke-width:0.8000000000000002;"/><path d="M417.6,376.6086 L409.6,376.6086 C397.6,376.6086 397.6,631.7523 385.6,631.7523 L377.6,631.7523 " fill="none" style="stroke:#181818;stroke-width:0.8000000000000002;"/><!--SRC=[ZLLDSnf93BtFhr1LBebheH8scqrnICLcC6i7RuXnl0SF1p4Ze8iUzLH_Z3tvzL4p0pQ9KzaBq6hfwUb9BJuwZzQNYeiIgoHnMyKLMYoXe1K6xM_emPzgjUQIs4Ck7sIJv0JEWjA5uZLSt6HymIkBpjkG-s19hayWfPgqgM9KnfKrEJadzfEx5odQxPnmOebu0IDJKBJ3k3QwZe3g62pUtP9roh0uixT6Hzi9J9J_NEqm8-eKQ-A2x0AEoMICxf0aEbvHeK8vhwpawZXy2QYLRs22degCPweYhPWwliy4H1wAWmbEwjIg9jly7zyB4MzjqKifIHJfHorEjOPyWxmc9xGj7NZVlPXlcpCTI7o2DsKB4KMOcvM_nrXcIYlXN42_ts_rIT4ZZDg6_KQaDk1pHIsvJbHu56ANAuw2A9MnfSgI4-G33y7-RqFeOxbbPHmkLLIqnHq_L5hbIkPWo-PUKx7kcW6VzkUCIsHSKnoNfArufaCfFCioU5ngyL0_3zbfRLGSmenFYzx6v7lrdaM0F59ZoT3M1oFqNjCVmCP3HNlhNAeYBTCge5Ka_YW9d4j-if0gr_wufjpicmzpRUx5vWsir8Ey5EjHCIp3MkJhzI8k5sWB9uSUJ8Z9glmf9p7_GiKOC4RNH6nDQFd88jdYMOAdQhtnCyNRHNlvCyz8v9fwmL7BmkW2vcJbxYd4gC4uZTRB2iYz0-ctSSeRsnoYYBkuZEzKAPrRx01aHifAYu1FK2LX9KN55dH9dXlcNNHAmbPsaN9UvMsHgvMC3d7Uj1vJN1ehX0gPWaFOo3X_RFjH2_LirtPoH0viohQqMP0d-46-t6PtxYxbyMQSQxNlKsGQLw6LlV7j2Vz_3InD72gcVDjv_cEi-YOx0BLkmEMezq8SYJr3vsIFm1rsgY_0xHIKuKa-ogCzREYPHlPVhwPGTqlnJN_mUl1dV_1o7XZEQGc3T_3czN3mr_3jtp0Qtq2yVfMydCocu4omEK4X0bkr397vg-GIQuJh86kgf67S0doPVjeROCoricQt_fFBswj7XtTlUsVATus6swiaRVyn928tyLKEuUlDUUzzCfKt6MH4XlAVaeoCuDfc2EduEm00]--></g></svg>