<?xml version="1.0" encoding="us-ascii" standalone="no"?><svg xmlns="http://www.w3.org/2000/svg" xmlns:xlink="http://www.w3.org/1999/xlink" contentStyleType="text/css" height="565.8px" preserveAspectRatio="none" style="width:763px;height:565px;background:#FFFFFF;" version="1.1" viewBox="0 0 763 565" width="763.8px" zoomAndPan="magnify"><defs/><g><rect fill="#F1F1F1" height="31.7859" rx="7.5" ry="7.5" style="stroke:#181818;stroke-width:0.8999999999999999;" width="68.4" x="313.2" y="266.5635"/><text fill="#000000" font-family="sans-serif" font-size="8.4" lengthAdjust="spacing" textLength="43.8" x="325.5" y="280.6846">Building IT</text><text fill="#000000" font-family="sans-serif" font-size="8.4" lengthAdjust="spacing" textLength="56.4" x="319.2" y="290.5775">Infrastructure</text><rect fill="#F1F1F1" height="31.7859" rx="7.5" ry="7.5" style="stroke:#181818;stroke-width:0.8999999999999999;" width="66" x="411.6" y="101.6789"/><text fill="#000000" font-family="sans-serif" font-size="8.4" lengthAdjust="spacing" textLength="54" x="417.6" y="115.8">Development</text><text fill="#000000" font-family="sans-serif" font-size="8.4" lengthAdjust="spacing" textLength="31.8" x="428.7" y="125.693">process</text><rect fill="#8FBC8F" height="21.893" rx="7.5" ry="7.5" style="stroke:#181818;stroke-width:0.8999999999999999;" width="33.6" x="507.6" y="12"/><text fill="#000000" font-family="sans-serif" font-size="8.4" lengthAdjust="spacing" textLength="21.6" x="513.6" y="26.1211">Code</text><path d="M477.6,117.5719 L483.6,117.5719 C492.6,117.5719 492.6,22.9465 501.6,22.9465 L507.6,22.9465 " fill="none" style="stroke:#181818;stroke-width:0.6;"/><rect fill="#F1F1F1" height="21.893" rx="7.5" ry="7.5" style="stroke:#181818;stroke-width:0.8999999999999999;" width="105" x="507.6" y="45.893"/><text fill="#000000" font-family="sans-serif" font-size="8.4" lengthAdjust="spacing" textLength="93" x="513.6" y="60.0141">Evolving infrastructure</text><path d="M477.6,117.5719 L483.6,117.5719 C492.6,117.5719 492.6,56.8395 501.6,56.8395 L507.6,56.8395 " fill="none" style="stroke:#181818;stroke-width:0.6;"/><rect fill="#F1F1F1" height="21.893" rx="7.5" ry="7.5" style="stroke:#181818;stroke-width:0.8999999999999999;" width="76.8" x="507.6" y="106.6254"/><text fill="#000000" font-family="sans-serif" font-size="8.4" lengthAdjust="spacing" textLength="64.8" x="513.6" y="120.7465">Version Control</text><rect fill="#F1F1F1" height="21.893" rx="7.5" ry="7.5" style="stroke:#181818;stroke-width:0.8999999999999999;" width="39.6" x="614.4" y="106.6254"/><text fill="#000000" font-family="sans-serif" font-size="8.4" lengthAdjust="spacing" textLength="27.6" x="620.4" y="120.7465">GitOps</text><rect fill="#E6E6FA" height="31.7859" rx="7.5" ry="7.5" style="stroke:#181818;stroke-width:0.8999999999999999;" width="68.4" x="684" y="79.7859"/><text fill="#000000" font-family="sans-serif" font-size="8.4" lengthAdjust="spacing" textLength="56.4" x="690" y="93.907">Infrastructure</text><text fill="#000000" font-family="sans-serif" font-size="8.4" lengthAdjust="spacing" textLength="33" x="701.7" y="103.8">as Code</text><path d="M654,117.5719 L660,117.5719 C669,117.5719 669,95.6789 678,95.6789 L684,95.6789 " fill="none" style="stroke:#181818;stroke-width:0.6;"/><rect fill="#00FA9A" height="31.7859" rx="7.5" ry="7.5" style="stroke:#181818;stroke-width:0.8999999999999999;" width="67.2" x="684" y="123.5719"/><text fill="#000000" font-family="sans-serif" font-size="8.4" lengthAdjust="spacing" textLength="55.2" x="690" y="137.693">Quality Gated</text><text fill="#000000" font-family="sans-serif" font-size="8.4" lengthAdjust="spacing" textLength="36.6" x="699.3" y="147.5859">Pipelines</text><path d="M654,117.5719 L660,117.5719 C669,117.5719 669,139.4648 678,139.4648 L684,139.4648 " fill="none" style="stroke:#181818;stroke-width:0.6;"/><path d="M584.4,117.5719 L590.4,117.5719 C599.4,117.5719 599.4,117.5719 608.4,117.5719 L614.4,117.5719 " fill="none" style="stroke:#181818;stroke-width:0.6;"/><path d="M477.6,117.5719 L483.6,117.5719 C492.6,117.5719 492.6,117.5719 501.6,117.5719 L507.6,117.5719 " fill="none" style="stroke:#181818;stroke-width:0.6;"/><rect fill="#00FA9A" height="21.893" rx="7.5" ry="7.5" style="stroke:#181818;stroke-width:0.8999999999999999;" width="94.8" x="507.6" y="167.3578"/><text fill="#000000" font-family="sans-serif" font-size="8.4" lengthAdjust="spacing" textLength="82.8" x="513.6" y="181.4789">Continuous Delivery</text><path d="M477.6,117.5719 L483.6,117.5719 C492.6,117.5719 492.6,178.3043 501.6,178.3043 L507.6,178.3043 " fill="none" style="stroke:#181818;stroke-width:0.6;"/><rect fill="#00FA9A" height="21.893" rx="7.5" ry="7.5" style="stroke:#181818;stroke-width:0.8999999999999999;" width="108" x="507.6" y="201.2508"/><text fill="#000000" font-family="sans-serif" font-size="8.4" lengthAdjust="spacing" textLength="96" x="513.6" y="215.3719">Continuous Integration</text><path d="M477.6,117.5719 L483.6,117.5719 C492.6,117.5719 492.6,212.1973 501.6,212.1973 L507.6,212.1973 " fill="none" style="stroke:#181818;stroke-width:0.6;"/><path d="M381.6,282.4564 L387.6,282.4564 C396.6,282.4564 396.6,117.5719 405.6,117.5719 L411.6,117.5719 " fill="none" style="stroke:#181818;stroke-width:0.6;"/><rect fill="#8FBC8F" height="31.7859" rx="7.5" ry="7.5" style="stroke:#181818;stroke-width:0.8999999999999999;" width="59.4" x="411.6" y="316.3494"/><text fill="#000000" font-family="sans-serif" font-size="8.4" lengthAdjust="spacing" textLength="47.4" x="417.6" y="330.4705">All changes</text><text fill="#000000" font-family="sans-serif" font-size="8.4" lengthAdjust="spacing" textLength="37.2" x="422.7" y="340.3635">are Code</text><rect fill="#87CEEB" height="21.893" rx="7.5" ry="7.5" style="stroke:#181818;stroke-width:0.8999999999999999;" width="60.6" x="501" y="235.1437"/><text fill="#000000" font-family="sans-serif" font-size="8.4" lengthAdjust="spacing" textLength="48.6" x="507" y="249.2648">Automation</text><path d="M471,332.2424 L477,332.2424 C486,332.2424 486,246.0902 495,246.0902 L501,246.0902 " fill="none" style="stroke:#181818;stroke-width:0.6;"/><rect fill="#F1F1F1" height="31.7859" rx="7.5" ry="7.5" style="stroke:#181818;stroke-width:0.8999999999999999;" width="51" x="501" y="281.0367"/><text fill="#000000" font-family="sans-serif" font-size="8.4" lengthAdjust="spacing" textLength="36" x="508.5" y="295.1578">Software</text><text fill="#000000" font-family="sans-serif" font-size="8.4" lengthAdjust="spacing" textLength="39" x="507" y="305.0508">Defined...</text><rect fill="#F1F1F1" height="21.893" rx="7.5" ry="7.5" style="stroke:#181818;stroke-width:0.8999999999999999;" width="60.6" x="582" y="269.0367"/><text fill="#000000" font-family="sans-serif" font-size="8.4" lengthAdjust="spacing" textLength="48.6" x="588" y="283.1578">Data Center</text><rect fill="#E6E6FA" height="21.893" rx="7.5" ry="7.5" style="stroke:#181818;stroke-width:0.8999999999999999;" width="68.4" x="672.6" y="269.0367"/><text fill="#000000" font-family="sans-serif" font-size="8.4" lengthAdjust="spacing" textLength="56.4" x="678.6" y="283.1578">Infrastructure</text><path d="M642.6,279.9832 L648.6,279.9832 C657.6,279.9832 657.6,279.9832 666.6,279.9832 L672.6,279.9832 " fill="none" style="stroke:#181818;stroke-width:0.6;"/><path d="M552,296.9297 L558,296.9297 C567,296.9297 567,279.9832 576,279.9832 L582,279.9832 " fill="none" style="stroke:#181818;stroke-width:0.6;"/><rect fill="#F1F1F1" height="21.893" rx="7.5" ry="7.5" style="stroke:#181818;stroke-width:0.8999999999999999;" width="57.6" x="582" y="302.9297"/><text fill="#000000" font-family="sans-serif" font-size="8.4" lengthAdjust="spacing" textLength="45.6" x="588" y="317.0508">Operations</text><rect fill="#F1F1F1" height="21.893" rx="7.5" ry="7.5" style="stroke:#181818;stroke-width:0.8999999999999999;" width="48.6" x="669.6" y="302.9297"/><text fill="#000000" font-family="sans-serif" font-size="8.4" lengthAdjust="spacing" textLength="36.6" x="675.6" y="317.0508">Pipelines</text><path d="M639.6,313.8762 L645.6,313.8762 C654.6,313.8762 654.6,313.8762 663.6,313.8762 L669.6,313.8762 " fill="none" style="stroke:#181818;stroke-width:0.6;"/><path d="M552,296.9297 L558,296.9297 C567,296.9297 567,313.8762 576,313.8762 L582,313.8762 " fill="none" style="stroke:#181818;stroke-width:0.6;"/><path d="M471,332.2424 L477,332.2424 C486,332.2424 486,296.9297 495,296.9297 L501,296.9297 " fill="none" style="stroke:#181818;stroke-width:0.6;"/><rect fill="#F1F1F1" height="31.7859" rx="7.5" ry="7.5" style="stroke:#181818;stroke-width:0.8999999999999999;" width="72.6" x="501" y="353.7691"/><text fill="#000000" font-family="sans-serif" font-size="8.4" lengthAdjust="spacing" textLength="31.2" x="521.7" y="367.8902">Textual</text><text fill="#000000" font-family="sans-serif" font-size="8.4" lengthAdjust="spacing" textLength="60.6" x="507" y="377.7832">representation</text><rect fill="#F5DEB3" height="21.893" rx="7.5" ry="7.5" style="stroke:#181818;stroke-width:0.8999999999999999;" width="70.8" x="603.6" y="336.8227"/><text fill="#000000" font-family="sans-serif" font-size="8.4" lengthAdjust="spacing" textLength="58.8" x="609.6" y="350.9437">Composability</text><path d="M573.6,369.6621 L579.6,369.6621 C588.6,369.6621 588.6,347.7691 597.6,347.7691 L603.6,347.7691 " fill="none" style="stroke:#181818;stroke-width:0.6;"/><rect fill="#F1F1F1" height="31.7859" rx="7.5" ry="7.5" style="stroke:#181818;stroke-width:0.8999999999999999;" width="57" x="603.6" y="370.7156"/><text fill="#000000" font-family="sans-serif" font-size="8.4" lengthAdjust="spacing" textLength="30" x="617.1" y="384.8367">Explicit</text><text fill="#000000" font-family="sans-serif" font-size="8.4" lengthAdjust="spacing" textLength="45" x="609.6" y="394.7297">knowledge</text><rect fill="#F1F1F1" height="31.7859" rx="7.5" ry="7.5" style="stroke:#181818;stroke-width:0.8999999999999999;" width="66" x="690.6" y="370.7156"/><text fill="#000000" font-family="sans-serif" font-size="8.4" lengthAdjust="spacing" textLength="45.6" x="700.8" y="384.8367">Knowledge</text><text fill="#000000" font-family="sans-serif" font-size="8.4" lengthAdjust="spacing" textLength="54" x="696.6" y="394.7297">management</text><path d="M660.6,386.6086 L666.6,386.6086 C675.6,386.6086 675.6,386.6086 684.6,386.6086 L690.6,386.6086 " fill="none" style="stroke:#181818;stroke-width:0.6;"/><path d="M573.6,369.6621 L579.6,369.6621 C588.6,369.6621 588.6,386.6086 597.6,386.6086 L603.6,386.6086 " fill="none" style="stroke:#181818;stroke-width:0.6;"/><path d="M471,332.2424 L477,332.2424 C486,332.2424 486,369.6621 495,369.6621 L501,369.6621 " fill="none" style="stroke:#181818;stroke-width:0.6;"/><rect fill="#DDA0DD" height="31.7859" rx="7.5" ry="7.5" style="stroke:#181818;stroke-width:0.8999999999999999;" width="68.4" x="501" y="397.5551"/><text fill="#000000" font-family="sans-serif" font-size="8.4" lengthAdjust="spacing" textLength="43.8" x="513.3" y="411.6762">Immutable</text><text fill="#000000" font-family="sans-serif" font-size="8.4" lengthAdjust="spacing" textLength="56.4" x="507" y="421.5691">infrastructure</text><path d="M471,332.2424 L477,332.2424 C486,332.2424 486,413.448 495,413.448 L501,413.448 " fill="none" style="stroke:#181818;stroke-width:0.6;"/><path d="M381.6,282.4564 L387.6,282.4564 C396.6,282.4564 396.6,332.2424 405.6,332.2424 L411.6,332.2424 " fill="none" style="stroke:#181818;stroke-width:0.6;"/><rect fill="#F1F1F1" height="31.7859" rx="7.5" ry="7.5" style="stroke:#181818;stroke-width:0.8999999999999999;" width="79.8" x="411.6" y="481.234"/><text fill="#000000" font-family="sans-serif" font-size="8.4" lengthAdjust="spacing" textLength="36.6" x="433.2" y="495.3551">Avoiding</text><text fill="#000000" font-family="sans-serif" font-size="8.4" lengthAdjust="spacing" textLength="67.8" x="417.6" y="505.248">Ad-hoc changes</text><rect fill="#DDA0DD" height="21.893" rx="7.5" ry="7.5" style="stroke:#181818;stroke-width:0.8999999999999999;" width="109.2" x="521.4" y="463.234"/><text fill="#000000" font-family="sans-serif" font-size="8.4" lengthAdjust="spacing" textLength="97.2" x="527.4" y="477.3551">Immutable components</text><rect fill="#F1F1F1" height="21.893" rx="7.5" ry="7.5" style="stroke:#181818;stroke-width:0.8999999999999999;" width="74.4" x="660.6" y="441.341"/><text fill="#000000" font-family="sans-serif" font-size="8.4" lengthAdjust="spacing" textLength="62.4" x="666.6" y="455.4621">Cattle, not pets</text><path d="M630.6,474.1805 L636.6,474.1805 C645.6,474.1805 645.6,452.2875 654.6,452.2875 L660.6,452.2875 " fill="none" style="stroke:#181818;stroke-width:0.6;"/><rect fill="#F1F1F1" height="31.7859" rx="7.5" ry="7.5" style="stroke:#181818;stroke-width:0.8999999999999999;" width="63" x="660.6" y="475.234"/><text fill="#000000" font-family="sans-serif" font-size="8.4" lengthAdjust="spacing" textLength="36" x="674.1" y="489.3551">Stateless</text><text fill="#000000" font-family="sans-serif" font-size="8.4" lengthAdjust="spacing" textLength="51" x="666.6" y="499.248">Applications</text><path d="M630.6,474.1805 L636.6,474.1805 C645.6,474.1805 645.6,491.127 654.6,491.127 L660.6,491.127 " fill="none" style="stroke:#181818;stroke-width:0.6;"/><path d="M491.4,497.127 L497.4,497.127 C506.4,497.127 506.4,474.1805 515.4,474.1805 L521.4,474.1805 " fill="none" style="stroke:#181818;stroke-width:0.6;"/><rect fill="#FFB6C1" height="21.893" rx="7.5" ry="7.5" style="stroke:#181818;stroke-width:0.8999999999999999;" width="111.6" x="521.4" y="497.127"/><text fill="#000000" font-family="sans-serif" font-size="8.4" lengthAdjust="spacing" textLength="99.6" x="527.4" y="511.248">Faster Disaster Recovery</text><path d="M491.4,497.127 L497.4,497.127 C506.4,497.127 506.4,508.0734 515.4,508.0734 L521.4,508.0734 " fill="none" style="stroke:#181818;stroke-width:0.6;"/><rect fill="#F1F1F1" height="21.893" rx="7.5" ry="7.5" style="stroke:#181818;stroke-width:0.8999999999999999;" width="117" x="521.4" y="531.0199"/><text fill="#000000" font-family="sans-serif" font-size="8.4" lengthAdjust="spacing" textLength="105" x="527.4" y="545.141">Slower to fix certain bugs</text><path d="M491.4,497.127 L497.4,497.127 C506.4,497.127 506.4,541.9664 515.4,541.9664 L521.4,541.9664 " fill="none" style="stroke:#181818;stroke-width:0.6;"/><path d="M381.6,282.4564 L387.6,282.4564 C396.6,282.4564 396.6,497.127 405.6,497.127 L411.6,497.127 " fill="none" style="stroke:#181818;stroke-width:0.6;"/><rect fill="#F1F1F1" height="21.893" rx="7.5" ry="7.5" style="stroke:#181818;stroke-width:0.8999999999999999;" width="53.4" x="229.8" y="77.6789"/><text fill="#000000" font-family="sans-serif" font-size="8.4" lengthAdjust="spacing" textLength="41.4" x="235.8" y="91.8">Standards</text><rect fill="#F1F1F1" height="21.893" rx="7.5" ry="7.5" style="stroke:#181818;stroke-width:0.8999999999999999;" width="96.6" x="103.2" y="26.8395"/><text fill="#000000" font-family="sans-serif" font-size="8.4" lengthAdjust="spacing" textLength="84.6" x="109.2" y="40.9605">Generic components</text><path d="M229.8,88.6254 L223.8,88.6254 C214.8,88.6254 214.8,37.7859 205.8,37.7859 L199.8,37.7859 " fill="none" style="stroke:#181818;stroke-width:0.6;"/><rect fill="#F5DEB3" height="21.893" rx="7.5" ry="7.5" style="stroke:#181818;stroke-width:0.8999999999999999;" width="70.8" x="129" y="60.7324"/><text fill="#000000" font-family="sans-serif" font-size="8.4" lengthAdjust="spacing" textLength="58.8" x="135" y="74.8535">Composability</text><path d="M229.8,88.6254 L223.8,88.6254 C214.8,88.6254 214.8,71.6789 205.8,71.6789 L199.8,71.6789 " fill="none" style="stroke:#181818;stroke-width:0.6;"/><rect fill="#F1F1F1" height="21.893" rx="7.5" ry="7.5" style="stroke:#181818;stroke-width:0.8999999999999999;" width="64.2" x="135.6" y="94.6254"/><text fill="#000000" font-family="sans-serif" font-size="8.4" lengthAdjust="spacing" textLength="52.2" x="141.6" y="108.7465">Easy to learn</text><path d="M229.8,88.6254 L223.8,88.6254 C214.8,88.6254 214.8,105.5719 205.8,105.5719 L199.8,105.5719 " fill="none" style="stroke:#181818;stroke-width:0.6;"/><rect fill="#F1F1F1" height="21.893" rx="7.5" ry="7.5" style="stroke:#181818;stroke-width:0.8999999999999999;" width="54" x="145.8" y="128.5184"/><text fill="#000000" font-family="sans-serif" font-size="8.4" lengthAdjust="spacing" textLength="42" x="151.8" y="142.6395">Easy to fix</text><rect fill="#FFB6C1" height="21.893" rx="7.5" ry="7.5" style="stroke:#181818;stroke-width:0.8999999999999999;" width="104.4" x="11.4" y="128.5184"/><text fill="#000000" font-family="sans-serif" font-size="8.4" lengthAdjust="spacing" textLength="92.4" x="17.4" y="142.6395">Easy Disaster Recovery</text><path d="M145.8,139.4648 L139.8,139.4648 C130.8,139.4648 130.8,139.4648 121.8,139.4648 L115.8,139.4648 " fill="none" style="stroke:#181818;stroke-width:0.6;"/><path d="M229.8,88.6254 L223.8,88.6254 C214.8,88.6254 214.8,139.4648 205.8,139.4648 L199.8,139.4648 " fill="none" style="stroke:#181818;stroke-width:0.6;"/><path d="M313.2,282.4564 L307.2,282.4564 C298.2,282.4564 298.2,88.6254 289.2,88.6254 L283.2,88.6254 " fill="none" style="stroke:#181818;stroke-width:0.6;"/><rect fill="#F1F1F1" height="21.893" rx="7.5" ry="7.5" style="stroke:#181818;stroke-width:0.8999999999999999;" width="41.4" x="241.8" y="269.0367"/><text fill="#000000" font-family="sans-serif" font-size="8.4" lengthAdjust="spacing" textLength="29.4" x="247.8" y="283.1578">Re-use</text><rect fill="#F1F1F1" height="21.893" rx="7.5" ry="7.5" style="stroke:#181818;stroke-width:0.8999999999999999;" width="59.4" x="152.4" y="162.4113"/><text fill="#000000" font-family="sans-serif" font-size="8.4" lengthAdjust="spacing" textLength="47.4" x="158.4" y="176.5324">Gold Server</text><rect fill="#E0FFFF" height="21.893" rx="7.5" ry="7.5" style="stroke:#181818;stroke-width:0.8999999999999999;" width="93" x="29.4" y="162.4113"/><text fill="#000000" font-family="sans-serif" font-size="8.4" lengthAdjust="spacing" textLength="81" x="35.4" y="176.5324">Artefacts repository</text><path d="M152.4,173.3578 L146.4,173.3578 C137.4,173.3578 137.4,173.3578 128.4,173.3578 L122.4,173.3578 " fill="none" style="stroke:#181818;stroke-width:0.6;"/><path d="M241.8,279.9832 L235.8,279.9832 C226.8,279.9832 226.8,173.3578 217.8,173.3578 L211.8,173.3578 " fill="none" style="stroke:#181818;stroke-width:0.6;"/><rect fill="#F1F1F1" height="31.7859" rx="7.5" ry="7.5" style="stroke:#181818;stroke-width:0.8999999999999999;" width="69.6" x="142.2" y="196.3043"/><text fill="#000000" font-family="sans-serif" font-size="8.4" lengthAdjust="spacing" textLength="57.6" x="148.2" y="210.4254">Golden Server</text><text fill="#000000" font-family="sans-serif" font-size="8.4" lengthAdjust="spacing" textLength="31.2" x="161.4" y="220.3184">[image]</text><rect fill="#F1F1F1" height="21.893" rx="7.5" ry="7.5" style="stroke:#181818;stroke-width:0.8999999999999999;" width="78.6" x="33.6" y="201.2508"/><text fill="#000000" font-family="sans-serif" font-size="8.4" lengthAdjust="spacing" textLength="66.6" x="39.6" y="215.3719">Template Server</text><path d="M142.2,212.1973 L136.2,212.1973 C127.2,212.1973 127.2,212.1973 118.2,212.1973 L112.2,212.1973 " fill="none" style="stroke:#181818;stroke-width:0.6;"/><path d="M241.8,279.9832 L235.8,279.9832 C226.8,279.9832 226.8,212.1973 217.8,212.1973 L211.8,212.1973 " fill="none" style="stroke:#181818;stroke-width:0.6;"/><rect fill="#F1F1F1" height="21.893" rx="7.5" ry="7.5" style="stroke:#181818;stroke-width:0.8999999999999999;" width="57.6" x="154.2" y="257.0367"/><text fill="#000000" font-family="sans-serif" font-size="8.4" lengthAdjust="spacing" textLength="45.6" x="160.2" y="271.1578">Repeatable</text><rect fill="#87CEEB" height="21.893" rx="7.5" ry="7.5" style="stroke:#181818;stroke-width:0.8999999999999999;" width="60.6" x="63.6" y="240.0902"/><text fill="#000000" font-family="sans-serif" font-size="8.4" lengthAdjust="spacing" textLength="48.6" x="69.6" y="254.2113">Automation</text><path d="M154.2,267.9832 L148.2,267.9832 C139.2,267.9832 139.2,251.0367 130.2,251.0367 L124.2,251.0367 " fill="none" style="stroke:#181818;stroke-width:0.6;"/><rect fill="#F1F1F1" height="21.893" rx="7.5" ry="7.5" style="stroke:#181818;stroke-width:0.8999999999999999;" width="66" x="58.2" y="273.9832"/><text fill="#000000" font-family="sans-serif" font-size="8.4" lengthAdjust="spacing" textLength="54" x="64.2" y="288.1043">Deterministic</text><path d="M154.2,267.9832 L148.2,267.9832 C139.2,267.9832 139.2,284.9297 130.2,284.9297 L124.2,284.9297 " fill="none" style="stroke:#181818;stroke-width:0.6;"/><path d="M241.8,279.9832 L235.8,279.9832 C226.8,279.9832 226.8,267.9832 217.8,267.9832 L211.8,267.9832 " fill="none" style="stroke:#181818;stroke-width:0.6;"/><rect fill="#F1F1F1" height="21.893" rx="7.5" ry="7.5" style="stroke:#181818;stroke-width:0.8999999999999999;" width="50.4" x="161.4" y="324.8227"/><text fill="#000000" font-family="sans-serif" font-size="8.4" lengthAdjust="spacing" textLength="38.4" x="167.4" y="338.9437">Efficiency</text><rect fill="#F1F1F1" height="21.893" rx="7.5" ry="7.5" style="stroke:#181818;stroke-width:0.8999999999999999;" width="77.4" x="54" y="307.8762"/><text fill="#000000" font-family="sans-serif" font-size="8.4" lengthAdjust="spacing" textLength="65.4" x="60" y="321.9973">Labor reduction</text><path d="M161.4,335.7691 L155.4,335.7691 C146.4,335.7691 146.4,318.8227 137.4,318.8227 L131.4,318.8227 " fill="none" style="stroke:#181818;stroke-width:0.6;"/><rect fill="#F1F1F1" height="21.893" rx="7.5" ry="7.5" style="stroke:#181818;stroke-width:0.8999999999999999;" width="72.6" x="58.8" y="341.7691"/><text fill="#000000" font-family="sans-serif" font-size="8.4" lengthAdjust="spacing" textLength="60.6" x="64.8" y="355.8902">Cost reduction</text><path d="M161.4,335.7691 L155.4,335.7691 C146.4,335.7691 146.4,352.7156 137.4,352.7156 L131.4,352.7156 " fill="none" style="stroke:#181818;stroke-width:0.6;"/><path d="M241.8,279.9832 L235.8,279.9832 C226.8,279.9832 226.8,335.7691 217.8,335.7691 L211.8,335.7691 " fill="none" style="stroke:#181818;stroke-width:0.6;"/><rect fill="#FFB6C1" height="21.893" rx="7.5" ry="7.5" style="stroke:#181818;stroke-width:0.8999999999999999;" width="111" x="100.8" y="375.6621"/><text fill="#000000" font-family="sans-serif" font-size="8.4" lengthAdjust="spacing" textLength="99" x="106.8" y="389.7832">Easier Disaster Recovery</text><path d="M241.8,279.9832 L235.8,279.9832 C226.8,279.9832 226.8,386.6086 217.8,386.6086 L211.8,386.6086 " fill="none" style="stroke:#181818;stroke-width:0.6;"/><path d="M313.2,282.4564 L307.2,282.4564 C298.2,282.4564 298.2,279.9832 289.2,279.9832 L283.2,279.9832 " fill="none" style="stroke:#181818;stroke-width:0.6;"/><rect fill="#F1F1F1" height="21.893" rx="7.5" ry="7.5" style="stroke:#181818;stroke-width:0.8999999999999999;" width="54.6" x="228.6" y="462.8678"/><text fill="#000000" font-family="sans-serif" font-size="8.4" lengthAdjust="spacing" textLength="42.6" x="234.6" y="476.9889">Autonomy</text><rect fill="#F1F1F1" height="21.893" rx="7.5" ry="7.5" style="stroke:#181818;stroke-width:0.8999999999999999;" width="58.2" x="140.4" y="409.5551"/><text fill="#000000" font-family="sans-serif" font-size="8.4" lengthAdjust="spacing" textLength="46.2" x="146.4" y="423.6762">Pull &gt; Push</text><path d="M228.6,473.8143 L222.6,473.8143 C213.6,473.8143 213.6,420.5016 204.6,420.5016 L198.6,420.5016 " fill="none" style="stroke:#181818;stroke-width:0.6;"/><rect fill="#F1F1F1" height="31.7859" rx="7.5" ry="7.5" style="stroke:#181818;stroke-width:0.8999999999999999;" width="65.4" x="133.2" y="443.448"/><text fill="#000000" font-family="sans-serif" font-size="8.4" lengthAdjust="spacing" textLength="53.4" x="139.2" y="457.5691">Autonomous</text><text fill="#000000" font-family="sans-serif" font-size="8.4" lengthAdjust="spacing" textLength="26.4" x="152.7" y="467.4621">clients</text><rect fill="#F1F1F1" height="21.893" rx="7.5" ry="7.5" style="stroke:#181818;stroke-width:0.8999999999999999;" width="79.2" x="24" y="414.5016"/><text fill="#000000" font-family="sans-serif" font-size="8.4" lengthAdjust="spacing" textLength="67.2" x="30" y="428.6227">Decentralization</text><path d="M133.2,459.341 L127.2,459.341 C118.2,459.341 118.2,425.448 109.2,425.448 L103.2,425.448 " fill="none" style="stroke:#181818;stroke-width:0.6;"/><rect fill="#F1F1F1" height="21.893" rx="7.5" ry="7.5" style="stroke:#181818;stroke-width:0.8999999999999999;" width="73.2" x="30" y="448.3945"/><text fill="#000000" font-family="sans-serif" font-size="8.4" lengthAdjust="spacing" textLength="61.2" x="36" y="462.5156">No bottlenecks</text><path d="M133.2,459.341 L127.2,459.341 C118.2,459.341 118.2,459.341 109.2,459.341 L103.2,459.341 " fill="none" style="stroke:#181818;stroke-width:0.6;"/><rect fill="#F1F1F1" height="21.893" rx="7.5" ry="7.5" style="stroke:#181818;stroke-width:0.8999999999999999;" width="97.2" x="6" y="482.2875"/><text fill="#000000" font-family="sans-serif" font-size="8.4" lengthAdjust="spacing" textLength="85.2" x="12" y="496.4086">Horizontally scalable</text><path d="M133.2,459.341 L127.2,459.341 C118.2,459.341 118.2,493.234 109.2,493.234 L103.2,493.234 " fill="none" style="stroke:#181818;stroke-width:0.6;"/><path d="M228.6,473.8143 L222.6,473.8143 C213.6,473.8143 213.6,459.341 204.6,459.341 L198.6,459.341 " fill="none" style="stroke:#181818;stroke-width:0.6;"/><rect fill="#E0FFFF" height="21.893" rx="7.5" ry="7.5" style="stroke:#181818;stroke-width:0.8999999999999999;" width="112.8" x="85.8" y="516.1805"/><text fill="#000000" font-family="sans-serif" font-size="8.4" lengthAdjust="spacing" textLength="100.8" x="91.8" y="530.3016">Passive [artefact] servers</text><path d="M228.6,473.8143 L222.6,473.8143 C213.6,473.8143 213.6,527.127 204.6,527.127 L198.6,527.127 " fill="none" style="stroke:#181818;stroke-width:0.6;"/><path d="M313.2,282.4564 L307.2,282.4564 C298.2,282.4564 298.2,473.8143 289.2,473.8143 L283.2,473.8143 " fill="none" style="stroke:#181818;stroke-width:0.6;"/><!--SRC=[ZLLDSzf84BthLtHLBebheH8scqrnICL6cBM3DyGuteF5eP4Qc6BKeveFsUJNfqSIs2HEPI_6qzCVhr-_QNrq7gql5HSbLadYjeehj5X2GIiCsj_GWp_LQiqbiOTS_f1DaXCu2qeNYjTmSPFn1QyiEcz3xeCbkJw1b6hIfefH6LVMvEISs4_kNgHejtF2YINY1OnCGT4EuzheEYPKnydYtIrPfmoBCtjhTBITm4JvprMJCsQTOarSa5t0CPYCqHsAHCShAbGevvMLMXs6Bm6ryZkOeASYuvcgI2kc3kyp0H67uc22apwrgidk_e_lXP2tjkYbbIIIz2CNfrf3la5UanFObWwuxrxCjxip7KXyWZTbcoAIC3ShVu-npPHMWhdez_ijFIbwX54xhzzmr0PyhgZ5rd4AZpmqfQ8IXAYCBLMMd6G-m93S_sq8VUosh8p3fOg4jdd73vLMkH8PRDdSQohMtIpWq_wSSOcCQufgITg6PpgKWhCiWyUb5W_riyPEQwEY1ZC-BNeRa-_9UpO3v14QIuMsFnYXzvh-03OUAjfRvz8LQH6h9AqYy4TAX42rtlYPukq2pWKBMKYLQ_-vfjpiTG1pRUx5vWsir8Cy6kjHCIp3MgZizM8DBj0MJWuzc12JLVbJV6B-1QCnO8nk5tDhGij75gaMpxqZfCtbppWZa6lg1KSj2gCBc9ELkwSfHZkCmhHUja7k7SZiZLFUsDqXYhYBo_XEbJB5HPD0z59MMiXyabKALj9K74TNv3bTDz4f2LfPIyfvbRTDhbOY8-9yrtfCSMci02f44OUmaN7-sFOZ5-hPgJLqH0niohQrMP3N-45-tAOvTvVoZZFEjThFAIADMz7A2lds1F-_1fOc2emfttQU_nYhliawGArtu7BKUoAEo9wXSx9Iu0uxrXVW6WP5FCb7US27PJtJoFxhrHJgRZ- -wGzU3_xi3rxE0yCvBM7m3jwy7Wx-6hxz6qRZ6uZNhvANazaKd0as9oY4OAkM8I9_bLnYZN0TP6ELD8mRWI_JJti3ZBbMrZHVWkJozkhHuTtRtfdotQ3XzYf9su-7HEGclj0XVBqvxxrFfl8-WqXaA9-NP6GahzqD8Hr_1m00]--></g></svg>