<?xml version="1.0" encoding="us-ascii" standalone="no"?><svg xmlns="http://www.w3.org/2000/svg" xmlns:xlink="http://www.w3.org/1999/xlink" contentStyleType="text/css" height="770px" preserveAspectRatio="none" style="width:935px;height:770px;background:#FFFFFF;" version="1.1" viewBox="0 0 935 770" width="935px" zoomAndPan="magnify"><defs/><g><text fill="#000000" font-family="sans-serif" font-size="14" font-weight="bold" lengthAdjust="spacing" textLength="186" x="367.75" y="23.5352">Building an infrastructure</text><!--entity code--><g id="elem_code"><rect fill="#F1F1F1" height="38.9766" rx="2.5" ry="2.5" style="stroke:#181818;stroke-width:0.5;" width="103" x="202" y="510.4883"/><text fill="#000000" font-family="sans-serif" font-size="14" lengthAdjust="spacing" textLength="79" x="212" y="527.0234">All changes</text><text fill="#000000" font-family="sans-serif" font-size="14" lengthAdjust="spacing" textLength="59" x="224" y="543.5117">are code</text></g><g id="elem_GMN3"><path d="M6,517.4883 L6,542.7988 A0,0 0 0 0 6,542.7988 L167,542.7988 A0,0 0 0 0 167,542.7988 L167,535.4883 L201.7,529.9883 L167,527.4883 L167,527.4883 L157,517.4883 L6,517.4883 A0,0 0 0 0 6,517.4883 " fill="#FEFFDD" style="stroke:#181818;stroke-width:0.5;"/><path d="M157,517.4883 L157,527.4883 L167,527.4883 L157,517.4883 " fill="#FEFFDD" style="stroke:#181818;stroke-width:0.5;"/><text fill="#000000" font-family="sans-serif" font-size="13" lengthAdjust="spacing" textLength="140" x="12" y="535.0566">Infrastructure as Code</text></g><!--entity adhoc--><g id="elem_adhoc"><rect fill="#F1F1F1" height="38.9766" rx="2.5" ry="2.5" style="stroke:#181818;stroke-width:0.5;" width="113" x="333" y="393.4883"/><text fill="#000000" font-family="sans-serif" font-size="14" lengthAdjust="spacing" textLength="93" x="343" y="410.0234">Avoid ad-hoc</text><text fill="#000000" font-family="sans-serif" font-size="14" lengthAdjust="spacing" textLength="57" x="361" y="426.5117">changes</text></g><!--entity autonomy--><g id="elem_autonomy"><rect fill="#F1F1F1" height="22.4883" rx="2.5" ry="2.5" style="stroke:#181818;stroke-width:0.5;" width="91" x="660" y="44.4883"/><text fill="#000000" font-family="sans-serif" font-size="14" lengthAdjust="spacing" textLength="71" x="670" y="61.0234">Autonomy</text></g><!--entity dev--><g id="elem_dev"><rect fill="#F1F1F1" height="38.9766" rx="2.5" ry="2.5" style="stroke:#181818;stroke-width:0.5;" width="193" x="147" y="276.4883"/><text fill="#000000" font-family="sans-serif" font-size="14" lengthAdjust="spacing" textLength="169" x="157" y="293.0234">Building Infrastructure is</text><text fill="#000000" font-family="sans-serif" font-size="14" lengthAdjust="spacing" textLength="158" x="164.5" y="309.5117">a Development Process</text></g><!--entity generic--><g id="elem_generic"><rect fill="#F1F1F1" height="38.9766" rx="2.5" ry="2.5" style="stroke:#181818;stroke-width:0.5;" width="108" x="351.5" y="510.4883"/><text fill="#000000" font-family="sans-serif" font-size="14" lengthAdjust="spacing" textLength="52" x="379.5" y="527.0234">Generic</text><text fill="#000000" font-family="sans-serif" font-size="14" lengthAdjust="spacing" textLength="88" x="361.5" y="543.5117">Components</text></g><g id="elem_GMN10"><path d="M494.5,517.4883 L494.5,525.9883 L459.99,529.9883 L494.5,533.9883 L494.5,542.7988 A0,0 0 0 0 494.5,542.7988 L616.5,542.7988 A0,0 0 0 0 616.5,542.7988 L616.5,527.4883 L606.5,517.4883 L494.5,517.4883 A0,0 0 0 0 494.5,517.4883 " fill="#FEFFDD" style="stroke:#181818;stroke-width:0.5;"/><path d="M606.5,517.4883 L606.5,527.4883 L616.5,527.4883 L606.5,517.4883 " fill="#FEFFDD" style="stroke:#181818;stroke-width:0.5;"/><text fill="#000000" font-family="sans-serif" font-size="13" lengthAdjust="spacing" textLength="101" x="500.5" y="535.0566">Cattle, not pets!</text></g><!--entity cost--><g id="elem_cost"><rect fill="#F1F1F1" height="22.4883" rx="2.5" ry="2.5" style="stroke:#181818;stroke-width:0.5;" width="51" x="578" y="742.4883"/><text fill="#000000" font-family="sans-serif" font-size="14" lengthAdjust="spacing" textLength="31" x="588" y="759.0234">Cost</text></g><!--entity dr--><g id="elem_dr"><rect fill="#F1F1F1" height="38.9766" rx="2.5" ry="2.5" style="stroke:#181818;stroke-width:0.5;" width="81" x="511" y="626.4883"/><text fill="#000000" font-family="sans-serif" font-size="14" lengthAdjust="spacing" textLength="55" x="524" y="643.0234">Disaster</text><text fill="#000000" font-family="sans-serif" font-size="14" lengthAdjust="spacing" textLength="61" x="521" y="659.5117">Recovery</text></g><!--entity artefacts--><g id="elem_artefacts"><rect fill="#F1F1F1" height="38.9766" rx="2.5" ry="2.5" style="stroke:#181818;stroke-width:0.5;" width="169" x="621" y="276.4883"/><text fill="#000000" font-family="sans-serif" font-size="14" font-style="italic" lengthAdjust="spacing" textLength="149" x="631" y="293.0234">&#171;Artefacts repository&#187;</text><text fill="#000000" font-family="sans-serif" font-size="14" lengthAdjust="spacing" textLength="78" x="666.5" y="309.5117">Gold server</text></g><!--entity golden--><g id="elem_golden"><rect fill="#F1F1F1" height="38.9766" rx="2.5" ry="2.5" style="stroke:#181818;stroke-width:0.5;" width="115" x="648" y="393.4883"/><text fill="#000000" font-family="sans-serif" font-size="14" font-style="italic" lengthAdjust="spacing" textLength="78" x="666.5" y="410.0234">&#171;Template&#187;</text><text fill="#000000" font-family="sans-serif" font-size="14" lengthAdjust="spacing" textLength="95" x="658" y="426.5117">Golden server</text></g><!--entity labor--><g id="elem_labor"><rect fill="#F1F1F1" height="22.4883" rx="2.5" ry="2.5" style="stroke:#181818;stroke-width:0.5;" width="59" x="651" y="634.9883"/><text fill="#000000" font-family="sans-serif" font-size="14" lengthAdjust="spacing" textLength="39" x="661" y="651.5234">Labor</text></g><!--entity pull--><g id="elem_pull"><rect fill="#F1F1F1" height="55.4648" rx="2.5" ry="2.5" style="stroke:#181818;stroke-width:0.5;" width="88" x="661.5" y="143.9883"/><text fill="#000000" font-family="sans-serif" font-size="14" lengthAdjust="spacing" textLength="25" x="693" y="160.5234">Pull</text><text fill="#000000" font-family="sans-serif" font-size="14" lengthAdjust="spacing" textLength="68" x="671.5" y="177.0117">instead of</text><text fill="#000000" font-family="sans-serif" font-size="14" lengthAdjust="spacing" textLength="33" x="691" y="193.5">Push</text></g><g id="elem_GMN19"><path d="M784.5,143.4883 L784.5,167.4883 L749.74,171.4883 L784.5,175.4883 L784.5,199.4199 A0,0 0 0 0 784.5,199.4199 L928.5,199.4199 A0,0 0 0 0 928.5,199.4199 L928.5,153.4883 L918.5,143.4883 L784.5,143.4883 A0,0 0 0 0 784.5,143.4883 " fill="#FEFFDD" style="stroke:#181818;stroke-width:0.5;"/><path d="M918.5,143.4883 L918.5,153.4883 L928.5,153.4883 L918.5,143.4883 " fill="#FEFFDD" style="stroke:#181818;stroke-width:0.5;"/><text fill="#000000" font-family="sans-serif" font-size="13" lengthAdjust="spacing" textLength="123" x="790.5" y="161.0566">Servers are passive.</text><text fill="#000000" font-family="sans-serif" font-size="13" lengthAdjust="spacing" textLength="92" x="804" y="176.3672">Clients initiate</text><text fill="#000000" font-family="sans-serif" font-size="13" lengthAdjust="spacing" textLength="75" x="814.5" y="191.6777">interactions</text></g><!--entity repeat--><g id="elem_repeat"><rect fill="#F1F1F1" height="22.4883" rx="2.5" ry="2.5" style="stroke:#181818;stroke-width:0.5;" width="108" x="651.5" y="518.9883"/><text fill="#000000" font-family="sans-serif" font-size="14" lengthAdjust="spacing" textLength="88" x="661.5" y="535.5234">Repeatability</text></g><!--entity vc--><g id="elem_vc"><rect fill="#F1F1F1" height="38.9766" rx="2.5" ry="2.5" style="stroke:#181818;stroke-width:0.5;" width="76" x="205.5" y="393.4883"/><text fill="#000000" font-family="sans-serif" font-size="14" lengthAdjust="spacing" textLength="52" x="215.5" y="410.0234">Version</text><text fill="#000000" font-family="sans-serif" font-size="14" lengthAdjust="spacing" textLength="52" x="217.5" y="426.5117">Control</text></g><g id="elem_GMN24"><path d="M18.5,392.4883 L18.5,433.1094 A0,0 0 0 0 18.5,433.1094 L170.5,433.1094 A0,0 0 0 0 170.5,433.1094 L170.5,416.9883 L205.13,412.9883 L170.5,408.9883 L170.5,402.4883 L160.5,392.4883 L18.5,392.4883 A0,0 0 0 0 18.5,392.4883 " fill="#FEFFDD" style="stroke:#181818;stroke-width:0.5;"/><path d="M160.5,392.4883 L160.5,402.4883 L170.5,402.4883 L160.5,392.4883 " fill="#FEFFDD" style="stroke:#181818;stroke-width:0.5;"/><text fill="#000000" font-family="sans-serif" font-size="13" lengthAdjust="spacing" textLength="128" x="26" y="410.0566">Traces the evolution</text><text fill="#000000" font-family="sans-serif" font-size="13" lengthAdjust="spacing" textLength="127" x="28.5" y="425.3672">of the infrastructure</text></g><!--link artefacts to golden--><g id="link_artefacts_golden"><path d="M705.5,315.9783 C705.5,335.4083 705.5,365.6783 705.5,387.0383 " fill="none" id="artefacts-to-golden" style="stroke:#181818;stroke-width:1.0;"/><polygon fill="#181818" points="705.5,391.8383,709.5,382.8383,705.5,386.8383,701.5,382.8383,705.5,391.8383" style="stroke:#181818;stroke-width:1.0;"/><text fill="#000000" font-family="sans-serif" font-size="13" lengthAdjust="spacing" textLength="40" x="706.5" y="359.0566">serves</text></g><!--link adhoc to generic--><g id="link_adhoc_generic"><path d="M392.14,432.9783 C394.84,452.4083 399.06,482.6783 402.03,504.0383 " fill="none" id="adhoc-to-generic" style="stroke:#181818;stroke-width:1.0;"/><polygon fill="#181818" points="402.7,508.8483,405.4253,499.384,402.0129,503.8957,397.5012,500.4833,402.7,508.8483" style="stroke:#181818;stroke-width:1.0;"/><text fill="#000000" font-family="sans-serif" font-size="13" lengthAdjust="spacing" textLength="58" x="399.5" y="477.0566">produces</text></g><!--link adhoc to code--><g id="link_adhoc_code"><path d="M367.04,432.9783 C343.28,453.0783 305.78,484.7883 280.44,506.2083 " fill="none" id="adhoc-to-code" style="stroke:#181818;stroke-width:1.0;"/><polygon fill="#181818" points="276.7,509.3783,286.1538,506.6168,280.5164,506.1479,280.9852,500.5105,276.7,509.3783" style="stroke:#181818;stroke-width:1.0;"/><text fill="#000000" font-family="sans-serif" font-size="13" lengthAdjust="spacing" textLength="41" x="331.5" y="477.0566">means</text></g><!--link generic to dr--><g id="link_generic_dr"><path d="M429.61,549.8083 C455.08,569.6983 495.23,601.0583 522.43,622.2883 " fill="none" id="generic-to-dr" style="stroke:#181818;stroke-width:1.0;"/><polygon fill="#181818" points="526.16,625.2083,521.5377,616.5115,522.2225,622.1267,516.6072,622.8115,526.16,625.2083" style="stroke:#181818;stroke-width:1.0;"/><text fill="#000000" font-family="sans-serif" font-size="13" lengthAdjust="spacing" textLength="58" x="488.5" y="593.0566">improves</text></g><!--link dr to cost--><g id="link_dr_cost"><path d="M554.84,665.8283 C557.73,679.3583 562.7,697.7283 570.5,712.4883 C575.28,721.5383 582.33,730.4483 588.69,737.5483 " fill="none" id="dr-to-cost" style="stroke:#181818;stroke-width:1.0;"/><polygon fill="#181818" points="591.91,741.0483,588.7492,731.7204,588.5204,737.3726,582.8682,737.1438,591.91,741.0483" style="stroke:#181818;stroke-width:1.0;"/><text fill="#000000" font-family="sans-serif" font-size="13" lengthAdjust="spacing" textLength="49" x="571.5" y="709.0566">reduces</text></g><!--link dev to vc--><g id="link_dev_vc"><path d="M243.5,315.9783 C243.5,335.4083 243.5,365.6783 243.5,387.0383 " fill="none" id="dev-to-vc" style="stroke:#181818;stroke-width:1.0;"/><polygon fill="#181818" points="243.5,391.8383,247.5,382.8383,243.5,386.8383,239.5,382.8383,243.5,391.8383" style="stroke:#181818;stroke-width:1.0;"/><text fill="#000000" font-family="sans-serif" font-size="13" lengthAdjust="spacing" textLength="51" x="244.5" y="359.0566">requires</text></g><!--link golden to repeat--><g id="link_golden_repeat"><path d="M705.5,432.9783 C705.5,455.0883 705.5,491.2383 705.5,512.3083 " fill="none" id="golden-to-repeat" style="stroke:#181818;stroke-width:1.0;"/><polygon fill="#181818" points="705.5,517.0683,709.5,508.0683,705.5,512.0683,701.5,508.0683,705.5,517.0683" style="stroke:#181818;stroke-width:1.0;"/><text fill="#000000" font-family="sans-serif" font-size="13" lengthAdjust="spacing" textLength="48" x="706.5" y="477.0566">enables</text></g><!--link labor to cost--><g id="link_labor_cost"><path d="M673.12,657.1083 C659.58,675.6483 630.73,715.1783 614.74,737.0783 " fill="none" id="labor-to-cost" style="stroke:#181818;stroke-width:1.0;"/><polygon fill="#181818" points="611.87,741.0283,620.4006,736.1059,614.8126,736.9858,613.9326,731.3978,611.87,741.0283" style="stroke:#181818;stroke-width:1.0;"/><text fill="#000000" font-family="sans-serif" font-size="13" lengthAdjust="spacing" textLength="49" x="644.5" y="709.0566">reduces</text></g><!--link autonomy to pull--><g id="link_autonomy_pull"><path d="M705.5,66.6083 C705.5,82.3083 705.5,113.2583 705.5,137.3083 " fill="none" id="autonomy-to-pull" style="stroke:#181818;stroke-width:1.0;"/><polygon fill="#181818" points="705.5,142.0583,709.5,133.0583,705.5,137.0583,701.5,133.0583,705.5,142.0583" style="stroke:#181818;stroke-width:1.0;"/><text fill="#000000" font-family="sans-serif" font-size="13" lengthAdjust="spacing" textLength="41" x="706.5" y="110.0566">means</text></g><!--link pull to artefacts--><g id="link_pull_artefacts"><path d="M705.5,199.3683 C705.5,220.3483 705.5,249.2583 705.5,269.7883 " fill="none" id="pull-to-artefacts" style="stroke:#181818;stroke-width:1.0;"/><polygon fill="#181818" points="705.5,274.6283,709.5,265.6283,705.5,269.6283,701.5,265.6283,705.5,274.6283" style="stroke:#181818;stroke-width:1.0;"/><text fill="#000000" font-family="sans-serif" font-size="13" lengthAdjust="spacing" textLength="51" x="706.5" y="243.0566">requires</text></g><!--link repeat to labor--><g id="link_repeat_labor"><path d="M703.28,541.1083 C698.96,560.8283 689.36,604.5883 684.11,628.5383 " fill="none" id="repeat-to-labor" style="stroke:#181818;stroke-width:1.0;"/><polygon fill="#181818" points="683.07,633.2483,688.9099,625.3176,684.144,628.365,681.0966,623.5991,683.07,633.2483" style="stroke:#181818;stroke-width:1.0;"/><text fill="#000000" font-family="sans-serif" font-size="13" lengthAdjust="spacing" textLength="49" x="694.5" y="593.0566">reduces</text></g><!--link vc to code--><g id="link_vc_code"><path d="M240.88,432.9783 C239.47,446.3283 238.4,464.5583 240.5,480.4883 C241.53,488.3183 243.46,496.6883 245.53,504.2283 " fill="none" id="vc-to-code" style="stroke:#181818;stroke-width:1.0;"/><polygon fill="#181818" points="246.86,508.8783,248.2336,499.1257,245.4864,504.0707,240.5414,501.3235,246.86,508.8783" style="stroke:#181818;stroke-width:1.0;"/><text fill="#000000" font-family="sans-serif" font-size="13" lengthAdjust="spacing" textLength="37" x="241.5" y="477.0566">needs</text></g><!--SRC=[RLFBZjim3BpxAzXSUkds0un5W3GB50Lw2BP1Jxae4kC8bKMNeetktvTwE4qMlGJAp6Z8eMZn4X2-p3uu7mSm4Noyi4d2ivMPiUi-1hm8207xuIhWFACLJx5BltoS39iH75xC7EI8VsGN_117Z09MVv2xpXfsiDc50FPgue09Jj4mWYM76p2f7Bf8Wf0hzV3jeO6is6T5yrd8Ep3kwKhs59jZiJ5EeLKr2qKQtohH_ZJkblLT7LyQWnTSCD1K8XoOBAPgxt1f1byn8dkjlgTnegZ2gXWgNgEKOVMmDwBp_GIAmOIIFZIFFILfuPCqxCKdRGVv55_Hqe9SstUyrgNW824hiu7dvnsBZjrA0iQ9aXVYj-ss15wPkuiOxwuUSPo24QpoeT1D-zsSYKlTa4yDFSmXdAAFsfvnG9TJXCEShaKtAVUG-KUfazj0c4nAVi7FEgpWywHqlRnuhGtPJzEQianhgwyueH5pzi5BZSy5QVHFzLKrvDb7OGf5ijZxzJcgfIwPN15meJ1dU-sNBWLwlztTRLZmzBHji-Zhh59NTgeIzN5xc9ZSR1-ulC0zZ6WqHjCLt74FVjGBsSfnqoRjaR5ww58LTB4P-pthjwKMzRaoNiFtWD6SWrBbJVxZiwvueVA3hEtaSm5lCUyALVT25-D_Vijzi8ZeKlSN]--></g></svg>