<?xml version="1.0" encoding="UTF-8" standalone="no"?>
<!-- Created with Inkscape (http://www.inkscape.org/) -->

<svg
   width="19.06263mm"
   height="32.421379mm"
   viewBox="0 0 19.06263 32.421379"
   version="1.1"
   id="svg1"
   inkscape:version="1.3.2 (091e20e, 2023-11-25)"
   sodipodi:docname="weight-on-left-toe.svg"
   xmlns:inkscape="http://www.inkscape.org/namespaces/inkscape"
   xmlns:sodipodi="http://sodipodi.sourceforge.net/DTD/sodipodi-0.dtd"
   xmlns="http://www.w3.org/2000/svg"
   xmlns:svg="http://www.w3.org/2000/svg">
  <sodipodi:namedview
     id="namedview1"
     pagecolor="#ffffff"
     bordercolor="#000000"
     borderopacity="0.25"
     inkscape:showpageshadow="2"
     inkscape:pageopacity="0.0"
     inkscape:pagecheckerboard="0"
     inkscape:deskcolor="#d1d1d1"
     inkscape:document-units="mm"
     inkscape:zoom="0.71891835"
     inkscape:cx="-134.92492"
     inkscape:cy="27.124082"
     inkscape:window-width="1392"
     inkscape:window-height="950"
     inkscape:window-x="0"
     inkscape:window-y="25"
     inkscape:window-maximized="0"
     inkscape:current-layer="layer1" />
  <defs
     id="defs1" />
  <g
     inkscape:label="Ebene 1"
     inkscape:groupmode="layer"
     id="layer1"
     transform="translate(-140.49375,-141.2875)">
    <g
       id="g6"
       transform="matrix(0.26458333,0,0,0.26458333,130.16826,138.65159)">
      <g
         id="g5">
        <g
           id="g4">
          <path
             fill="#000000"
             d="m 67.1,10.3 c -1.3,0.2 -4.1,1.3 -6.2,2.3 -12.7,6.1 -20,22.8 -21.6,49.2 -0.5,8.5 -0.4,11.1 1,21.7 2,14.5 3.6,22.1 8.3,39.9 2.2,7.9 2.9,9.1 6.1,9.1 2.1,0 40.2,-7.7 42.2,-8.5 2.2,-0.9 2.6,-1.9 2.8,-9.5 0.3,-8.5 1.2,-12 5.5,-21.4 5.7,-12.2 6.4,-16 5.6,-28.1 C 109.7,48.9 107.3,37.4 103.5,29.3 97.3,16.3 88.7,10.5 75,10 72,9.9 68.4,10 67.1,10.3 Z m 11.8,10 c 4.6,1.1 7.2,2.5 10.4,5.8 3.5,3.5 5.8,7.6 7.7,13.5 2.2,7.1 4,20.8 4.2,31.6 0.1,6.3 -0.4,8.2 -4.8,17.8 -4.5,10 -6.5,17.3 -6.5,24.1 v 2.7 l -2.2,0.5 c -18.1,3.7 -28.7,5.8 -28.9,5.6 -0.6,-0.6 -4,-13.9 -5.6,-21.6 -0.9,-4.4 -2.2,-12 -2.9,-16.8 -1.1,-8.1 -1.2,-9.8 -1,-19.2 0.1,-7.5 0.5,-11.8 1.2,-15.8 1.2,-6.5 3.6,-14 5.7,-17.9 1.7,-3 5.9,-7.6 8.2,-8.7 4,-2.2 9.5,-2.8 14.5,-1.6 z"
             id="path1"
             style="display:inline" />
          <path
             fill="#000000"
             d="m 176.6,64.1 c -7.8,1.1 -14.8,5.2 -19.4,11.4 -6.8,8.9 -10.5,22.8 -11.9,44.2 -0.8,12.4 -0.3,15.1 6.1,28.9 3.9,8.5 4.7,11.8 5,20.2 0.2,7 0.6,8.3 2.5,9.3 0.5,0.3 10.3,2.4 21.8,4.7 22.3,4.5 22.3,4.5 24.3,2.3 0.9,-1 5.7,-18.6 7.7,-28.4 1.7,-8.1 3.7,-21.6 4.2,-28.2 1,-12.8 -1.4,-31.4 -5.2,-41.6 -3.6,-9.7 -9.6,-17.2 -16.4,-20.5 -4.9,-2.4 -12.1,-3.3 -18.7,-2.3 z m 9.4,9.7 c 13.1,2.2 20.3,17.4 20.9,44.4 0.2,9.1 0.1,10.9 -1,18.9 -0.7,4.9 -2,12.4 -2.8,16.8 -1.6,7.9 -5,21.1 -5.6,21.6 -0.2,0.3 -28.9,-5.2 -30.5,-5.8 -0.4,-0.1 -0.6,-1.1 -0.6,-2.7 0,-3.6 -1.2,-10.3 -2.6,-14.5 -0.7,-2.1 -2.6,-6.6 -4.2,-10.2 -4.3,-9.2 -4.7,-10.7 -4.6,-17.2 0.1,-10.9 1.9,-24.6 4.2,-31.8 4.1,-13.1 11,-19.1 23.1,-20 0.3,0.1 2,0.3 3.7,0.5 z"
             id="path2"
             style="display:none" />
          <path
             fill="#000000"
             d="m 77.4,140.2 c -19.6,4 -20.1,4.1 -21.4,5.6 -1.6,1.7 -1.6,2.8 -0.4,8.3 5.2,22.4 12.2,33.8 22.9,37.1 3.5,1.1 9.8,1.2 14.5,0.2 12.5,-2.7 17.3,-10.2 15.8,-24.6 -0.6,-5.7 -2.6,-16 -4.6,-23.7 -1.1,-4.4 -1.4,-5 -2.9,-5.9 -0.9,-0.6 -2.1,-1 -2.8,-1 -0.5,-0.1 -10,1.7 -21.1,4 z m 19.3,13.3 c 3.2,13.7 3.6,19.5 1.8,23.1 -1.8,3.6 -4.9,5 -11.6,5.5 -10.5,0.7 -15,-4.7 -20.1,-23.9 -0.7,-2.9 -1.2,-5.2 -1.1,-5.3 0.4,-0.4 29,-6 29.3,-5.7 0.2,0.1 1,3 1.7,6.3 z"
             id="path3"
             style="display:none" />
          <path
             fill="#000000"
             d="m 155.3,190.3 c -0.8,0.4 -1.8,1.3 -2.1,2 -0.9,1.8 -4.3,16 -5.5,23.1 -1.3,7.3 -1.1,14.7 0.5,18.6 2.5,6.5 8.6,10.4 18.4,11.6 10.4,1.3 18.3,-2.5 24.2,-11.5 2.9,-4.4 5.2,-10 7.7,-18.6 3.5,-12.4 3.7,-14.8 1.1,-16.7 -0.7,-0.6 -7.7,-2.2 -20.7,-4.9 -23.7,-4.7 -21.8,-4.3 -23.6,-3.6 z m 20.9,13.4 c 7.5,1.5 13.7,2.8 13.9,2.8 1.1,0 -2.9,14.2 -5.5,19.4 -2.3,4.8 -4.5,7.3 -7.7,8.9 -2.4,1.1 -2.9,1.2 -7.3,1 -7.5,-0.3 -11.3,-2.4 -12.6,-7.1 -0.7,-2.4 -0.3,-9.5 0.7,-14.1 2.6,-12 3.1,-13.8 4,-13.8 0.5,0.1 7,1.4 14.5,2.9 z"
             id="path4"
             style="display:none" />
        </g>
      </g>
    </g>
    <path
       style="fill:#d40000;stroke-width:1.39098"
       d="M 17.012755,98.489127 C 11.869905,76.633383 10.75088,67.118884 11.503571,51.647325 12.421942,32.770233 15.342481,23.277629 22.404732,16.215379 27.74038,10.87973 27.962206,10.80378 36.422841,11.415767 c 8.007139,0.579184 8.947453,1.017109 13.711841,6.385902 6.345135,7.150073 9.640482,18.180814 10.690832,35.786151 0.744268,12.474994 0.603266,13.301403 -4.3619,25.565017 -2.822066,6.970308 -5.492834,15.728153 -5.935039,19.461879 l -0.804008,6.788594 -11.995732,2.34299 c -6.597653,1.28865 -13.2725,2.64535 -14.832993,3.01489 -2.551012,0.6041 -3.144554,-0.63403 -5.883087,-12.272063 z"
       id="path5"
       transform="matrix(0.26458333,0,0,0.26458333,140.49375,141.2875)" />
  </g>
</svg>
