<?xml version="1.0" encoding="us-ascii" standalone="no"?><svg xmlns="http://www.w3.org/2000/svg" xmlns:xlink="http://www.w3.org/1999/xlink" contentStyleType="text/css" height="810px" preserveAspectRatio="none" style="width:577px;height:810px;background:#FFFFFF;" version="1.1" viewBox="0 0 577 810" width="577px" zoomAndPan="magnify"><defs/><g><text fill="#000000" font-family="sans-serif" font-size="14" font-weight="bold" lengthAdjust="spacing" textLength="245" x="159" y="23.5352">Boot sequence: task dependencies</text><!--entity vc--><g id="elem_vc"><rect fill="#F1F1F1" height="22.4883" rx="2.5" ry="2.5" style="stroke:#181818;stroke-width:0.5;" width="128" x="118" y="44.4883"/><text fill="#000000" font-family="sans-serif" font-size="14" lengthAdjust="spacing" textLength="108" x="128" y="61.0234">Version Control</text></g><!--entity gs--><g id="elem_gs"><rect fill="#F1F1F1" height="22.4883" rx="2.5" ry="2.5" style="stroke:#181818;stroke-width:0.5;" width="99" x="132.5" y="126.4883"/><text fill="#000000" font-family="sans-serif" font-size="14" lengthAdjust="spacing" textLength="79" x="142.5" y="143.0234">Gold Server</text></g><!--entity ahct--><g id="elem_ahct"><rect fill="#F1F1F1" height="22.4883" rx="2.5" ry="2.5" style="stroke:#181818;stroke-width:0.5;" width="161" x="10.5" y="208.4883"/><text fill="#000000" font-family="sans-serif" font-size="14" lengthAdjust="spacing" textLength="141" x="20.5" y="225.0234">Ad Hoc change tools</text></g><!--entity hit--><g id="elem_hit"><rect fill="#F1F1F1" height="22.4883" rx="2.5" ry="2.5" style="stroke:#181818;stroke-width:0.5;" width="134" x="207" y="208.4883"/><text fill="#000000" font-family="sans-serif" font-size="14" lengthAdjust="spacing" textLength="114" x="217" y="225.0234">Host install tools</text></g><!--entity ds--><g id="elem_ds"><rect fill="#F1F1F1" height="22.4883" rx="2.5" ry="2.5" style="stroke:#181818;stroke-width:0.5;" width="135" x="114.5" y="290.4883"/><text fill="#000000" font-family="sans-serif" font-size="14" lengthAdjust="spacing" textLength="115" x="124.5" y="307.0234">Directory servers</text></g><!--entity auth--><g id="elem_auth"><rect fill="#F1F1F1" height="22.4883" rx="2.5" ry="2.5" style="stroke:#181818;stroke-width:0.5;" width="174" x="7" y="372.4883"/><text fill="#000000" font-family="sans-serif" font-size="14" lengthAdjust="spacing" textLength="154" x="17" y="389.0234">Authentication servers</text></g><!--entity time--><g id="elem_time"><rect fill="#F1F1F1" height="22.4883" rx="2.5" ry="2.5" style="stroke:#181818;stroke-width:0.5;" width="107" x="216.5" y="372.4883"/><text fill="#000000" font-family="sans-serif" font-size="14" lengthAdjust="spacing" textLength="87" x="226.5" y="389.0234">Time servers</text></g><!--entity nfs--><g id="elem_nfs"><rect fill="#F1F1F1" height="22.4883" rx="2.5" ry="2.5" style="stroke:#181818;stroke-width:0.5;" width="155" x="16.5" y="454.4883"/><text fill="#000000" font-family="sans-serif" font-size="14" lengthAdjust="spacing" textLength="135" x="26.5" y="471.0234">Network file servers</text></g><!--entity frs--><g id="elem_frs"><rect fill="#F1F1F1" height="22.4883" rx="2.5" ry="2.5" style="stroke:#181818;stroke-width:0.5;" width="174" x="207" y="454.4883"/><text fill="#000000" font-family="sans-serif" font-size="14" lengthAdjust="spacing" textLength="154" x="217" y="471.0234">File replication servers</text></g><!--entity cfa--><g id="elem_cfa"><rect fill="#F1F1F1" height="22.4883" rx="2.5" ry="2.5" style="stroke:#181818;stroke-width:0.5;" width="133" x="127.5" y="536.4883"/><text fill="#000000" font-family="sans-serif" font-size="14" lengthAdjust="spacing" textLength="113" x="137.5" y="553.0234">Client file access</text></g><!--entity cosu--><g id="elem_cosu"><rect fill="#F1F1F1" height="22.4883" rx="2.5" ry="2.5" style="stroke:#181818;stroke-width:0.5;" width="135" x="126.5" y="618.4883"/><text fill="#000000" font-family="sans-serif" font-size="14" lengthAdjust="spacing" textLength="115" x="136.5" y="635.0234">Client OS update</text></g><!--entity ccm--><g id="elem_ccm"><rect fill="#F1F1F1" height="22.4883" rx="2.5" ry="2.5" style="stroke:#181818;stroke-width:0.5;" width="251" x="68.5" y="700.4883"/><text fill="#000000" font-family="sans-serif" font-size="14" lengthAdjust="spacing" textLength="231" x="78.5" y="717.0234">Client configuration management</text></g><!--entity mail--><g id="elem_mail"><rect fill="#F1F1F1" height="22.4883" rx="2.5" ry="2.5" style="stroke:#181818;stroke-width:0.5;" width="48" x="14" y="782.4883"/><text fill="#000000" font-family="sans-serif" font-size="14" lengthAdjust="spacing" textLength="28" x="24" y="799.0234">Mail</text></g><!--entity print--><g id="elem_print"><rect fill="#F1F1F1" height="22.4883" rx="2.5" ry="2.5" style="stroke:#181818;stroke-width:0.5;" width="74" x="97" y="782.4883"/><text fill="#000000" font-family="sans-serif" font-size="14" lengthAdjust="spacing" textLength="54" x="107" y="799.0234">Printing</text></g><!--entity monitor--><g id="elem_monitor"><rect fill="#F1F1F1" height="22.4883" rx="2.5" ry="2.5" style="stroke:#181818;stroke-width:0.5;" width="96" x="206" y="782.4883"/><text fill="#000000" font-family="sans-serif" font-size="14" lengthAdjust="spacing" textLength="76" x="216" y="799.0234">Monitoring</text></g><!--entity cam--><g id="elem_cam"><rect fill="#F1F1F1" height="22.4883" rx="2.5" ry="2.5" style="stroke:#181818;stroke-width:0.5;" width="234" x="337" y="782.4883"/><text fill="#000000" font-family="sans-serif" font-size="14" lengthAdjust="spacing" textLength="214" x="347" y="799.0234">Client application management</text></g><!--reverse link vc to gs--><g id="link_vc_gs"><path d="M182,73.2583 C182,89.1783 182,112.6083 182,126.0283 " fill="none" id="vc-backto-gs" style="stroke:#181818;stroke-width:1.0;"/><polygon fill="#181818" points="182,68.4583,178,77.4583,182,73.4583,186,77.4583,182,68.4583" style="stroke:#181818;stroke-width:1.0;"/></g><!--reverse link gs to ahct--><g id="link_gs_ahct"><path d="M165.3,153.1683 C147.22,169.0683 118.84,194.0083 102.9,208.0283 " fill="none" id="gs-backto-ahct" style="stroke:#181818;stroke-width:1.0;"/><polygon fill="#181818" points="168.97,149.9483,159.5683,152.8822,165.2133,153.2479,164.8476,158.8929,168.97,149.9483" style="stroke:#181818;stroke-width:1.0;"/></g><!--reverse link gs to hit--><g id="link_gs_hit"><path d="M198.89,153.1683 C217.16,169.0683 245.85,194.0083 261.97,208.0283 " fill="none" id="gs-backto-hit" style="stroke:#181818;stroke-width:1.0;"/><polygon fill="#181818" points="195.17,149.9383,199.3284,158.8662,198.94,153.2227,204.5835,152.8343,195.17,149.9383" style="stroke:#181818;stroke-width:1.0;"/></g><!--reverse link ahct to ds--><g id="link_ahct_ds"><path d="M107.7,235.1683 C125.78,251.0683 154.16,276.0083 170.1,290.0283 " fill="none" id="ahct-backto-ds" style="stroke:#181818;stroke-width:1.0;"/><polygon fill="#181818" points="104.03,231.9483,108.1524,240.8929,107.7867,235.2479,113.4317,234.8822,104.03,231.9483" style="stroke:#181818;stroke-width:1.0;"/></g><!--reverse link hit to ds--><g id="link_hit_ds"><path d="M257.11,235.1683 C238.84,251.0683 210.15,276.0083 194.03,290.0283 " fill="none" id="hit-backto-ds" style="stroke:#181818;stroke-width:1.0;"/><polygon fill="#181818" points="260.83,231.9383,251.4165,234.8343,257.06,235.2227,256.6716,240.8662,260.83,231.9383" style="stroke:#181818;stroke-width:1.0;"/></g><!--reverse link ds to auth--><g id="link_ds_auth"><path d="M165.85,317.1683 C148.36,333.0683 120.92,358.0083 105.51,372.0283 " fill="none" id="ds-backto-auth" style="stroke:#181818;stroke-width:1.0;"/><polygon fill="#181818" points="169.38,313.9683,160.0269,317.0536,165.6771,317.3281,165.4026,322.9783,169.38,313.9683" style="stroke:#181818;stroke-width:1.0;"/></g><!--reverse link ds to time--><g id="link_ds_time"><path d="M198.15,317.1683 C215.64,333.0683 243.08,358.0083 258.49,372.0283 " fill="none" id="ds-backto-time" style="stroke:#181818;stroke-width:1.0;"/><polygon fill="#181818" points="194.62,313.9683,198.5974,322.9783,198.3229,317.3281,203.9731,317.0536,194.62,313.9683" style="stroke:#181818;stroke-width:1.0;"/></g><!--reverse link auth to nfs--><g id="link_auth_nfs"><path d="M94,401.2583 C94,417.1783 94,440.6083 94,454.0283 " fill="none" id="auth-backto-nfs" style="stroke:#181818;stroke-width:1.0;"/><polygon fill="#181818" points="94,396.4583,90,405.4583,94,401.4583,98,405.4583,94,396.4583" style="stroke:#181818;stroke-width:1.0;"/></g><!--reverse link time to nfs--><g id="link_time_nfs"><path d="M241.21,397.5783 C206.51,413.3483 148.9,439.5283 117.01,454.0283 " fill="none" id="time-backto-nfs" style="stroke:#181818;stroke-width:1.0;"/><polygon fill="#181818" points="245.61,395.5683,235.7615,395.651,241.0582,397.6373,239.0719,402.934,245.61,395.5683" style="stroke:#181818;stroke-width:1.0;"/></g><!--reverse link time to frs--><g id="link_time_frs"><path d="M274.9,400.8383 C279.68,416.7583 286.8,440.4883 290.86,454.0283 " fill="none" id="time-backto-frs" style="stroke:#181818;stroke-width:1.0;"/><polygon fill="#181818" points="273.57,396.3983,272.3302,406.1688,275.0094,401.1866,279.9915,403.8658,273.57,396.3983" style="stroke:#181818;stroke-width:1.0;"/></g><!--reverse link nfs to cfa--><g id="link_nfs_cfa"><path d="M112.1,480.9683 C131.96,496.8483 163.33,521.9483 180.92,536.0283 " fill="none" id="nfs-backto-cfa" style="stroke:#181818;stroke-width:1.0;"/><polygon fill="#181818" points="108.26,477.8883,112.7969,486.63,112.1671,481.0083,117.7888,480.3785,108.26,477.8883" style="stroke:#181818;stroke-width:1.0;"/></g><!--reverse link frs to cfa--><g id="link_frs_cfa"><path d="M275.9,480.9683 C256.04,496.8483 224.67,521.9483 207.08,536.0283 " fill="none" id="frs-backto-cfa" style="stroke:#181818;stroke-width:1.0;"/><polygon fill="#181818" points="279.74,477.8883,270.2112,480.3785,275.8329,481.0083,275.2031,486.63,279.74,477.8883" style="stroke:#181818;stroke-width:1.0;"/></g><!--reverse link cfa to cosu--><g id="link_cfa_cosu"><path d="M194,565.2583 C194,581.1783 194,604.6083 194,618.0283 " fill="none" id="cfa-backto-cosu" style="stroke:#181818;stroke-width:1.0;"/><polygon fill="#181818" points="194,560.4583,190,569.4583,194,565.4583,198,569.4583,194,560.4583" style="stroke:#181818;stroke-width:1.0;"/></g><!--reverse link cosu to ccm--><g id="link_cosu_ccm"><path d="M194,647.2583 C194,663.1783 194,686.6083 194,700.0283 " fill="none" id="cosu-backto-ccm" style="stroke:#181818;stroke-width:1.0;"/><polygon fill="#181818" points="194,642.4583,190,651.4583,194,647.4583,198,651.4583,194,642.4583" style="stroke:#181818;stroke-width:1.0;"/></g><!--reverse link ccm to mail--><g id="link_ccm_mail"><path d="M168.1,725.7683 C137.3,741.5683 86.55,767.5883 58.4,782.0283 " fill="none" id="ccm-backto-mail" style="stroke:#181818;stroke-width:1.0;"/><polygon fill="#181818" points="172.26,723.6383,162.4264,724.1859,167.8109,725.9199,166.0769,731.3044,172.26,723.6383" style="stroke:#181818;stroke-width:1.0;"/></g><!--reverse link ccm to print--><g id="link_ccm_print"><path d="M182.37,727.9983 C170.43,743.9183 152.18,768.2483 141.85,782.0283 " fill="none" id="ccm-backto-print" style="stroke:#181818;stroke-width:1.0;"/><polygon fill="#181818" points="185.25,724.1583,176.65,728.9583,182.25,728.1583,183.05,733.7583,185.25,724.1583" style="stroke:#181818;stroke-width:1.0;"/></g><!--reverse link ccm to monitor--><g id="link_ccm_monitor"><path d="M205.63,727.9983 C217.57,743.9183 235.82,768.2483 246.15,782.0283 " fill="none" id="ccm-backto-monitor" style="stroke:#181818;stroke-width:1.0;"/><polygon fill="#181818" points="202.75,724.1583,204.95,733.7583,205.75,728.1583,211.35,728.9583,202.75,724.1583" style="stroke:#181818;stroke-width:1.0;"/></g><!--reverse link ccm to cam--><g id="link_ccm_cam"><path d="M234.02,724.7983 C284.97,740.4783 372.11,767.2883 420,782.0283 " fill="none" id="ccm-backto-cam" style="stroke:#181818;stroke-width:1.0;"/><polygon fill="#181818" points="229.44,723.3883,236.867,729.8566,234.2192,724.8577,239.2181,722.2099,229.44,723.3883" style="stroke:#181818;stroke-width:1.0;"/></g><!--SRC=[RL7BJiCm4BpdArRS-mE82nH1Bpoa8kuhUvDQjRt1tXJnz_XP6k2GQ6PdvB5dnOWbk6CMYFIna5Tq3OBn29fcyZeD3CLXK1WqNBrJY8OzRDbBO7i56E6aclZ8LiEUmeb24QROX5iDErQW3kWd0c6siHZmeAHPTXm5Z8-2rbuu3gORxaqW9Ho-qZLpGjNrEMAH0tan2YNVxzA3IMgkD-DefKaQDEsPv9F34KPZrnu_zf27B0MQxNynO-YshJNfAlKWL8fYDQWHruQNFIopHg4gSrpMkc8_cca9DSkXnubS4gfTkUP-GbCNuH9eizTWKXb-AlCvasvcRrABNNALhdDn_ddXxrHqmp2S5DniDdc_KooeBBBXlBBC2qdxIRn3tTnv8GsN1UH1ORdgFFbBShjfK70kCl4pJb_5fS7qgomNf5p1jPb6MXrTwWqqdb_u3G00]--></g></svg>